<svg width="92" height="20" viewBox="0 0 92 20" fill="none" xmlns="http://www.w3.org/2000/svg">
<path d="M13.2321 16.1495C13.1938 16.0755 13.1454 16.034 13.0872 16.0256C13.0283 16.0172 12.969 16.0288 12.9076 16.0603C12.8524 16.0886 12.8031 16.1248 12.76 16.1695C12.7915 16.2304 12.822 16.2882 12.8514 16.3417C12.8808 16.3953 12.9123 16.4525 12.9448 16.5129C12.9727 16.5134 13.0042 16.5082 13.0399 16.4972C13.0756 16.4861 13.1087 16.473 13.1391 16.4572C13.1754 16.4383 13.2027 16.4158 13.22 16.3895C13.2373 16.3632 13.2489 16.3349 13.2541 16.306C13.2594 16.2766 13.2594 16.2482 13.2541 16.2204C13.2494 16.1921 13.2421 16.1684 13.2321 16.1495Z" fill="#16673D"/>
<path d="M12.8413 15.7331C12.8633 15.6979 12.8617 15.6548 12.8355 15.6039C12.814 15.5619 12.7882 15.533 12.7583 15.5183C12.7284 15.5031 12.6969 15.4968 12.6627 15.4983C12.6286 15.5004 12.5945 15.5083 12.5593 15.5225C12.5241 15.5367 12.491 15.5524 12.459 15.5687C12.5062 15.6711 12.5556 15.7725 12.6071 15.8727C12.6291 15.8654 12.6507 15.8575 12.6727 15.8502C12.6948 15.8428 12.7147 15.8339 12.7336 15.8244C12.783 15.7987 12.8187 15.7688 12.8413 15.7331Z" fill="#16673D"/>
<path d="M9.5 1C4.80549 1 1 4.80549 1 9.5C1 14.1945 4.80549 18 9.5 18C14.1945 18 18 14.1945 18 9.5C18 4.80549 14.1945 1 9.5 1ZM14.8084 5.02972C14.8393 5.01711 14.8793 5.00346 14.9276 4.98771C14.9759 4.97195 15.0279 4.95515 15.084 4.9373C15.1402 4.91944 15.198 4.90106 15.2579 4.88321C15.3177 4.86483 15.375 4.84803 15.4296 4.83175C15.4842 4.81547 15.5341 4.80077 15.5792 4.78711C15.6244 4.77346 15.6611 4.76348 15.689 4.75666C15.7084 4.76506 15.7331 4.78134 15.763 4.80654C15.793 4.83175 15.8192 4.85905 15.8413 4.88899C15.8733 4.93257 15.8953 4.97563 15.9074 5.01816C15.9195 5.0607 15.9153 5.09693 15.8943 5.12739C15.856 5.18357 15.8108 5.24711 15.7583 5.318C15.7058 5.38889 15.6517 5.46188 15.5955 5.53592C15.5393 5.61049 15.4837 5.68348 15.4285 5.7549C15.3734 5.82631 15.3235 5.89038 15.2794 5.94604C15.2589 5.94446 15.2374 5.93606 15.2143 5.92083C15.1912 5.9056 15.1691 5.88355 15.1476 5.85414C15.1171 5.81213 15.103 5.77748 15.1051 5.74964C15.1072 5.72181 15.1208 5.69293 15.1465 5.66248L15.2395 5.54118L15.031 5.25499C14.988 5.26969 14.9465 5.28492 14.9055 5.30067C14.8646 5.31643 14.8288 5.33008 14.7973 5.34268C14.7842 5.33271 14.7711 5.3222 14.7585 5.31065C14.7459 5.2991 14.7322 5.28387 14.718 5.26444C14.6871 5.22138 14.6708 5.18357 14.6697 5.15102C14.6687 5.11793 14.6823 5.09115 14.7107 5.07067C14.7243 5.0607 14.739 5.05335 14.7543 5.04757C14.7706 5.04337 14.7884 5.03707 14.8084 5.02972ZM14.5936 3.5384C14.6141 3.55257 14.6335 3.5678 14.6514 3.58408C14.6913 3.62084 14.7138 3.65392 14.7196 3.68333C14.7254 3.71273 14.7102 3.74739 14.6739 3.78625L14.1646 4.34129L14.4838 4.63431C14.4812 4.64796 14.4754 4.66424 14.4676 4.68314C14.4592 4.70204 14.4476 4.71937 14.4324 4.7367C14.4056 4.76611 14.3788 4.78186 14.3526 4.78501C14.3263 4.78764 14.3022 4.77924 14.2801 4.75876L13.9115 4.42058C13.8779 4.3896 13.86 4.35495 13.8584 4.31661C13.8569 4.27828 13.8716 4.24257 13.9025 4.20844L14.5463 3.50741C14.5568 3.51371 14.5726 3.52474 14.5936 3.5384ZM12.8129 3.46383L13.2341 2.78538C13.2582 2.74653 13.2887 2.72289 13.3265 2.71397C13.3643 2.70504 13.4021 2.71292 13.441 2.73707L13.9488 3.05267C13.9488 3.06684 13.9461 3.08312 13.9419 3.1015C13.9377 3.11988 13.9293 3.13878 13.9172 3.15821C13.8962 3.19182 13.8731 3.2123 13.8485 3.21965C13.8233 3.227 13.7975 3.22228 13.7713 3.20547L13.4305 2.99385L13.3239 3.16557L13.6799 3.38664C13.6799 3.40082 13.6773 3.41709 13.6731 3.43547C13.6689 3.45385 13.6605 3.47276 13.6484 3.49219C13.6274 3.52579 13.6048 3.54627 13.5807 3.5531C13.5565 3.55992 13.5313 3.5552 13.5045 3.53892L13.2068 3.35408L13.0876 3.54575L13.494 3.79833C13.494 3.8125 13.4914 3.82931 13.4861 3.84874C13.4809 3.86817 13.4725 3.88759 13.4604 3.90702C13.4394 3.94063 13.4168 3.96059 13.3927 3.96689C13.3685 3.97319 13.3433 3.96794 13.3176 3.95218L12.8618 3.66915C12.8229 3.64499 12.7993 3.61401 12.7904 3.57673C12.7814 3.5405 12.7888 3.50269 12.8129 3.46383ZM11.4865 2.63888L11.7254 1.98039C11.7386 1.98249 11.7575 1.98616 11.7821 1.99141C11.8068 1.99666 11.8305 2.00349 11.8546 2.01189C11.9055 2.03027 11.9391 2.05233 11.9549 2.07701C11.9707 2.10221 11.9696 2.13949 11.9518 2.18938L11.7554 2.73077C11.7333 2.79168 11.7328 2.84525 11.7538 2.89093C11.7748 2.93662 11.8121 2.96865 11.8656 2.98808C11.9197 3.00803 11.9696 3.00698 12.0153 2.98598C12.061 2.96497 12.0946 2.92349 12.1166 2.86257L12.354 2.20881C12.3671 2.21091 12.386 2.21459 12.4107 2.21984C12.4354 2.22509 12.459 2.23191 12.4832 2.24032C12.5341 2.2587 12.5677 2.28075 12.5835 2.30543C12.5992 2.33064 12.5982 2.36792 12.5803 2.4178L12.3818 2.96445C12.3598 3.02536 12.3293 3.07682 12.291 3.11883C12.2526 3.16084 12.208 3.19235 12.1565 3.21335C12.1051 3.23435 12.0484 3.24486 11.9859 3.24381C11.9234 3.24276 11.8572 3.22963 11.7869 3.20442C11.7165 3.17922 11.6577 3.14666 11.6099 3.10728C11.5621 3.06789 11.5254 3.02378 11.4996 2.97495C11.4739 2.92611 11.4597 2.87308 11.4571 2.81637C11.4545 2.75913 11.4644 2.70031 11.4865 2.63888ZM10.0577 2.23244C10.0703 2.13949 10.0965 2.05915 10.1354 1.99141C10.1742 1.92367 10.2226 1.86959 10.2793 1.8281C10.336 1.78662 10.3995 1.75826 10.4699 1.74198C10.5402 1.72623 10.6132 1.72361 10.6899 1.73411C10.7986 1.74881 10.88 1.77769 10.9351 1.82075C10.9897 1.86381 11.0139 1.91107 11.0065 1.96358C11.0029 1.99089 10.9924 2.01399 10.975 2.0329C10.9577 2.0518 10.9388 2.06598 10.9183 2.07543C10.89 2.05075 10.859 2.02817 10.8249 2.00769C10.7907 1.98721 10.7482 1.97356 10.6983 1.96673C10.6027 1.9536 10.524 1.97356 10.462 2.02607C10.4 2.07911 10.3612 2.16102 10.346 2.27182C10.3302 2.3863 10.3465 2.47662 10.3953 2.54226C10.4442 2.6079 10.5177 2.6478 10.6169 2.66093C10.6684 2.66776 10.713 2.66723 10.7513 2.65831C10.7897 2.64938 10.8254 2.63783 10.859 2.62312C10.8747 2.63993 10.8868 2.65988 10.8952 2.68351C10.9036 2.70714 10.9057 2.73287 10.9021 2.76018C10.8989 2.78381 10.8894 2.80534 10.8742 2.82477C10.859 2.84367 10.8348 2.85837 10.8018 2.86835C10.776 2.87728 10.7424 2.88358 10.7004 2.88831C10.6584 2.89303 10.6075 2.89093 10.5481 2.88305C10.4683 2.87203 10.3953 2.8505 10.3292 2.81847C10.263 2.78643 10.2079 2.74337 10.1627 2.68981C10.1175 2.63625 10.0855 2.57114 10.0666 2.495C10.0466 2.41938 10.044 2.33169 10.0577 2.23244ZM8.74646 1.76404C8.81945 1.7005 8.92395 1.66532 9.05943 1.65744C9.11089 1.65429 9.1592 1.65534 9.20331 1.66007C9.24742 1.66479 9.28575 1.67372 9.31779 1.68685C9.34982 1.69998 9.37555 1.71678 9.39498 1.73778C9.41441 1.75826 9.42491 1.78294 9.42648 1.81182C9.42806 1.83966 9.42281 1.86434 9.41021 1.88587C9.3976 1.90792 9.3829 1.9263 9.36557 1.94205C9.33669 1.9242 9.29941 1.91055 9.25267 1.89952C9.20646 1.88902 9.15605 1.88534 9.10196 1.88849C9.0442 1.89164 9.00219 1.90319 8.97541 1.92315C8.94863 1.94258 8.93655 1.96621 8.93813 1.99404C8.9397 2.01819 8.94968 2.03605 8.96859 2.0476C8.98749 2.05915 9.01637 2.07071 9.05575 2.08173L9.155 2.10851C9.21276 2.12427 9.26317 2.14212 9.30728 2.16207C9.35139 2.18203 9.38868 2.20513 9.41913 2.23139C9.44959 2.25817 9.47322 2.28915 9.4895 2.32486C9.5063 2.36057 9.51575 2.40205 9.51838 2.44879C9.52153 2.4992 9.51418 2.54593 9.49685 2.58847C9.47952 2.631 9.45222 2.66828 9.41493 2.70084C9.37765 2.7334 9.33091 2.75965 9.27473 2.77961C9.21854 2.79956 9.15343 2.81216 9.07886 2.81637C9.02372 2.81952 8.97226 2.81794 8.925 2.81164C8.87774 2.80534 8.83626 2.79484 8.80107 2.78013C8.76589 2.76543 8.73754 2.746 8.71653 2.72237C8.69553 2.69874 8.68398 2.67143 8.68187 2.64045C8.67977 2.6079 8.68765 2.58059 8.70498 2.55748C8.72231 2.5349 8.74226 2.516 8.76432 2.50182C8.79845 2.5265 8.84046 2.54751 8.89034 2.56536C8.94023 2.58322 8.99589 2.59004 9.05733 2.58637C9.12087 2.58269 9.16603 2.56904 9.19176 2.54488C9.21749 2.52125 9.22957 2.49342 9.22747 2.46244C9.22589 2.43356 9.21381 2.41098 9.19176 2.3947C9.1697 2.37842 9.13715 2.36477 9.09461 2.35427L9.00114 2.33064C8.94968 2.31803 8.90295 2.30333 8.86094 2.28705C8.81893 2.27077 8.7827 2.25082 8.75276 2.22614C8.72231 2.20198 8.69815 2.17258 8.67977 2.13792C8.6614 2.10326 8.65089 2.06073 8.64774 2.01032C8.63987 1.9095 8.67347 1.82758 8.74646 1.76404ZM7.24884 2.04235C7.26827 2.00927 7.3003 1.98721 7.34441 1.97566L7.92361 1.82705C7.93359 1.83703 7.94357 1.84963 7.95407 1.86591C7.96457 1.88219 7.97245 1.90109 7.97822 1.92315C7.9882 1.96148 7.98715 1.99246 7.97507 2.01557C7.963 2.03867 7.94147 2.0539 7.91153 2.06178L7.52295 2.16155L7.57336 2.35742L7.97927 2.25344C7.98925 2.26342 7.99923 2.27602 8.00973 2.2923C8.02023 2.30858 8.02811 2.32749 8.03389 2.34954C8.04386 2.38787 8.04281 2.41833 8.03126 2.44091C8.01971 2.46296 7.9987 2.47819 7.96825 2.48607L7.62902 2.57324L7.68521 2.79221L8.14888 2.67353C8.15886 2.68351 8.16936 2.69716 8.17987 2.71397C8.19037 2.7313 8.19877 2.75073 8.20455 2.77278C8.21452 2.81111 8.21295 2.84157 8.20087 2.8631C8.18827 2.88515 8.16779 2.89933 8.13838 2.90721L7.61852 3.04059C7.57441 3.05214 7.53555 3.04794 7.50247 3.02851C7.46939 3.00908 7.44733 2.97705 7.43578 2.93294L7.23729 2.15945C7.22521 2.11376 7.22941 2.07491 7.24884 2.04235ZM5.02972 3.2102C5.04599 3.14194 5.07645 3.07892 5.12004 3.02116C5.16362 2.9634 5.21928 2.91299 5.2865 2.87045C5.35371 2.82792 5.42302 2.79851 5.49444 2.78328C5.56586 2.76753 5.63622 2.767 5.70501 2.78118C5.7738 2.79536 5.83996 2.82477 5.90245 2.8694C5.96547 2.91456 6.02218 2.97652 6.07259 3.05582C6.123 3.13511 6.15556 3.21283 6.17079 3.28897C6.18549 3.36511 6.18496 3.43757 6.16868 3.50584C6.15241 3.5741 6.12195 3.63712 6.07732 3.6954C6.03321 3.75369 5.97702 3.8041 5.90875 3.84769C5.84049 3.89075 5.77117 3.92015 5.69923 3.93591C5.62782 3.95166 5.55798 3.95218 5.48971 3.93748C5.42145 3.9233 5.35581 3.89337 5.29332 3.84716C5.23083 3.80148 5.17412 3.73899 5.12371 3.6597C5.0733 3.5804 5.04127 3.50269 5.02709 3.42707C5.01186 3.3504 5.01291 3.27846 5.02972 3.2102ZM3.93223 4.01152C3.96269 3.94641 4.00522 3.88654 4.05983 3.83246C4.13807 3.75527 4.21054 3.70853 4.27775 3.69068C4.34497 3.67335 4.39748 3.68333 4.43476 3.72113C4.45419 3.74109 4.46627 3.76314 4.47047 3.78835C4.4752 3.81355 4.47467 3.83718 4.46942 3.85924C4.43266 3.86659 4.3959 3.87762 4.35862 3.89232C4.32134 3.90702 4.28511 3.93223 4.24887 3.96741C4.18008 4.03515 4.14805 4.10972 4.15225 4.19111C4.15645 4.2725 4.19794 4.35284 4.27618 4.43266C4.35757 4.5151 4.43896 4.55711 4.52036 4.55816C4.60227 4.55974 4.67842 4.52508 4.74983 4.45524C4.78659 4.41901 4.81337 4.38278 4.82965 4.34707C4.84593 4.31136 4.85853 4.27565 4.86746 4.23995C4.89056 4.23732 4.91367 4.24047 4.93782 4.24835C4.96145 4.25622 4.98298 4.26988 5.00293 4.28983C5.01974 4.30716 5.03129 4.32764 5.03707 4.35127C5.04284 4.3749 5.03969 4.40326 5.02761 4.43529C5.01869 4.46102 5.00346 4.49147 4.98141 4.52771C4.95935 4.56394 4.92679 4.6028 4.88426 4.64533C4.82702 4.70204 4.76506 4.74668 4.69942 4.77924C4.63378 4.81179 4.56604 4.82965 4.4962 4.8328C4.42636 4.83595 4.35547 4.82177 4.283 4.79026C4.21106 4.75928 4.13965 4.70782 4.06928 4.63693C4.00312 4.57024 3.95533 4.5004 3.92593 4.42846C3.896 4.35652 3.88234 4.28511 3.88392 4.21474C3.88602 4.14438 3.9023 4.07664 3.93223 4.01152ZM2.91246 5.27284L3.24958 4.77924C3.26376 4.78029 3.27951 4.78291 3.29789 4.78816C3.31627 4.79341 3.33465 4.80234 3.35356 4.81547C3.38611 4.83805 3.40607 4.86168 3.41184 4.88688C3.41814 4.91209 3.41184 4.93782 3.39451 4.96355L3.16819 5.2949L3.33518 5.40885L3.57148 5.0628C3.58565 5.06385 3.60141 5.06647 3.61979 5.07172C3.63817 5.07698 3.65655 5.0859 3.67545 5.09903C3.70801 5.12161 3.72744 5.14471 3.73374 5.1694C3.73951 5.19408 3.73374 5.21876 3.71588 5.24501L3.51844 5.53435L3.70486 5.66143L3.97476 5.26602C3.98894 5.26707 4.00522 5.27022 4.02465 5.27599C4.04408 5.28177 4.06298 5.29122 4.08189 5.30435C4.11444 5.32693 4.13387 5.35003 4.1386 5.37471C4.14385 5.39939 4.13755 5.42408 4.12074 5.44876L3.81828 5.89195C3.79255 5.92976 3.76052 5.95234 3.72323 5.95917C3.68543 5.96652 3.64762 5.95706 3.60981 5.93133L2.95079 5.48131C2.91299 5.45558 2.89041 5.42355 2.88358 5.38627C2.87728 5.34846 2.88621 5.31065 2.91246 5.27284ZM4.13492 14.0013C4.1239 13.9871 4.12127 13.9734 4.12652 13.9614C4.16485 13.8653 4.17851 13.7823 4.16853 13.7125C4.15803 13.6426 4.13282 13.5812 4.09291 13.5271C4.06036 13.484 4.02307 13.4546 3.98001 13.4399C3.93696 13.4252 3.90125 13.4294 3.87237 13.4536C3.84086 13.4793 3.82826 13.5176 3.83561 13.568C3.84296 13.6185 3.85766 13.6767 3.88077 13.7424C3.90335 13.808 3.92803 13.8794 3.95428 13.9572C3.98054 14.0343 3.99577 14.1121 4.00049 14.1903C4.00522 14.2685 3.99314 14.3457 3.96531 14.4219C3.93748 14.498 3.88182 14.5673 3.7978 14.6298C3.73374 14.6776 3.66495 14.7091 3.59091 14.7238C3.51687 14.7385 3.44282 14.7375 3.36826 14.7207C3.29369 14.7039 3.2207 14.6718 3.15034 14.6235C3.07945 14.5752 3.01538 14.5127 2.95762 14.4355C2.8715 14.3205 2.81531 14.1992 2.78906 14.0716C2.7628 13.944 2.76753 13.8138 2.80324 13.6815C2.80901 13.6589 2.81636 13.6416 2.82634 13.629C2.83632 13.6164 2.85102 13.6111 2.87098 13.6127L3.18657 13.6458C3.1955 13.6468 3.2039 13.6521 3.21072 13.6615C3.21965 13.6731 3.2228 13.6872 3.2207 13.703C3.20967 13.756 3.20232 13.8096 3.1997 13.8626C3.19655 13.9157 3.19865 13.9666 3.206 14.0139C3.21335 14.0617 3.22333 14.1052 3.23698 14.1451C3.25063 14.1851 3.26691 14.2181 3.28687 14.2444C3.31837 14.2864 3.35303 14.3116 3.39136 14.3205C3.4297 14.3295 3.46593 14.3216 3.50006 14.2959C3.53524 14.2696 3.551 14.2307 3.54627 14.1798C3.54207 14.1289 3.52947 14.0701 3.50951 14.0039C3.48903 13.9372 3.46645 13.8658 3.44177 13.7886C3.41657 13.7114 3.40134 13.6342 3.39609 13.556C3.39084 13.4783 3.40134 13.4026 3.42707 13.3291C3.4528 13.2556 3.50531 13.1894 3.58513 13.1296C3.64394 13.0855 3.70801 13.055 3.7768 13.0382C3.84559 13.0214 3.9149 13.0198 3.98474 13.034C4.05458 13.0482 4.12337 13.0776 4.19164 13.1222C4.2599 13.1669 4.32344 13.2288 4.38225 13.3071C4.47047 13.4247 4.52613 13.5423 4.54871 13.6599C4.57129 13.7776 4.57024 13.8847 4.54451 13.9813C4.53873 14.0039 4.53138 14.0212 4.52141 14.0338C4.51143 14.0464 4.49673 14.0517 4.47677 14.0501L4.16118 14.017C4.1512 14.0175 4.1428 14.0118 4.13492 14.0013ZM5.8825 15.3639C5.83419 15.4627 5.7675 15.5682 5.68296 15.6801C5.59894 15.7909 5.51492 15.8838 5.4309 15.9594C5.34688 16.035 5.26076 16.0886 5.17202 16.1201C5.0838 16.1516 4.99086 16.1579 4.89371 16.1401C4.79657 16.1217 4.69259 16.0755 4.58074 16.0014C4.46889 15.9269 4.38855 15.8497 4.33867 15.7688C4.28931 15.6879 4.26568 15.6034 4.26883 15.5141C4.27198 15.4254 4.29771 15.3309 4.34654 15.2316C4.39538 15.1324 4.46154 15.0273 4.54556 14.9165C4.63063 14.8047 4.71465 14.7112 4.79814 14.6361C4.88163 14.561 4.96775 14.508 5.05597 14.4765C5.14419 14.445 5.23714 14.4387 5.33428 14.4565C5.43143 14.4749 5.5354 14.5211 5.64725 14.5952C5.7591 14.6697 5.83944 14.7469 5.88932 14.8278C5.93869 14.9087 5.96232 14.9932 5.95917 15.0825C5.95601 15.1712 5.93028 15.2652 5.8825 15.3639ZM7.65213 15.6963C7.61012 15.8134 7.55603 15.9274 7.48987 16.0377C7.45416 16.0954 7.41478 16.1527 7.37119 16.2094C7.32813 16.2661 7.28087 16.3191 7.22994 16.369C7.179 16.4189 7.12439 16.464 7.06663 16.504C7.00886 16.5439 6.9469 16.5764 6.88074 16.6006C6.85081 16.6783 6.8214 16.7565 6.79252 16.8348C6.76364 16.913 6.73581 16.9918 6.70903 17.0705C6.70167 17.0926 6.69222 17.1089 6.67962 17.121C6.66702 17.1325 6.65546 17.1362 6.64496 17.132L6.31257 17.0186C6.30206 17.0144 6.29524 17.0033 6.29261 16.9865C6.28999 16.9697 6.29261 16.9503 6.30154 16.9293C6.32832 16.85 6.35562 16.7728 6.38398 16.6967C6.41234 16.6205 6.44122 16.5439 6.47062 16.4661C6.43492 16.4058 6.40866 16.3391 6.39186 16.2661C6.37453 16.1931 6.36455 16.1185 6.36088 16.0419C6.3572 15.9657 6.35983 15.889 6.36823 15.8119C6.37663 15.7352 6.38766 15.6632 6.40236 15.5971C6.41864 15.5351 6.43702 15.4742 6.45645 15.4143C6.4764 15.3545 6.49951 15.2962 6.52576 15.24C6.53206 15.2248 6.54046 15.2138 6.55097 15.2064C6.56199 15.1996 6.5725 15.198 6.583 15.2022L6.5851 15.2032L6.90279 15.3529C6.9259 15.366 6.93167 15.3865 6.9196 15.4154C6.89912 15.4616 6.88074 15.5083 6.86446 15.5545C6.84818 15.6008 6.83505 15.6485 6.82403 15.6969C6.80827 15.7698 6.79777 15.846 6.79147 15.9242C6.78517 16.003 6.79147 16.0797 6.8109 16.1542C6.84083 16.1364 6.87076 16.1143 6.90017 16.087C6.92957 16.0602 6.9574 16.0319 6.98366 16.0019C7.00992 15.972 7.0346 15.941 7.05823 15.909C7.08186 15.877 7.10234 15.846 7.11966 15.8161C7.14539 15.7735 7.16902 15.7305 7.1895 15.6858C7.20998 15.6412 7.22941 15.5955 7.24674 15.5477C7.24989 15.5351 7.25724 15.5257 7.26775 15.5194C7.27825 15.5131 7.28928 15.5115 7.3003 15.5141L7.6327 15.6275C7.64373 15.6302 7.65108 15.6386 7.65423 15.6522C7.65738 15.6659 7.65685 15.6806 7.65213 15.6963ZM3.57043 10.6841C2.76228 6.42652 6.42652 2.7628 10.6841 3.57095C13.0849 4.02675 14.9733 5.91506 15.429 8.31587C16.2372 12.5735 12.5735 16.2377 8.31535 15.4296C5.91506 14.9738 4.02622 13.0849 3.57043 10.6841ZM10.1763 17.6272C10.1685 17.634 10.158 17.6371 10.1448 17.6377C10.0829 17.6424 10.0209 17.6466 9.95895 17.6508C9.89699 17.6545 9.83555 17.6576 9.77516 17.6587C9.69692 17.6608 9.6213 17.6603 9.54936 17.6576C9.47742 17.6555 9.41178 17.6492 9.35297 17.6392C9.33669 17.6366 9.31779 17.6277 9.29573 17.6135C9.2742 17.5993 9.26107 17.5694 9.25687 17.5237C9.2469 17.3898 9.23902 17.2591 9.23272 17.1309C9.22642 17.0028 9.22169 16.8752 9.21854 16.7476C9.21539 16.62 9.21434 16.4919 9.21434 16.3627C9.21434 16.2335 9.21644 16.1012 9.21959 15.9652C9.22064 15.9421 9.22537 15.9232 9.23272 15.9085C9.24059 15.8938 9.25005 15.8859 9.2616 15.8859L9.615 15.8969C9.62655 15.8985 9.63548 15.9069 9.64231 15.9221C9.64913 15.9374 9.65228 15.9557 9.65071 15.9773C9.64441 16.1962 9.64336 16.4152 9.64651 16.6331C9.65018 16.8511 9.65858 17.0706 9.67171 17.2911C9.7174 17.29 9.75731 17.289 9.79196 17.2885C9.8261 17.2874 9.8597 17.2858 9.89226 17.2837C9.92482 17.2811 9.95895 17.279 9.99518 17.2764C10.0309 17.2738 10.0745 17.2711 10.1249 17.2685C10.1396 17.268 10.1522 17.2711 10.1632 17.2774C10.1742 17.2837 10.1795 17.2916 10.1795 17.3016L10.1868 17.603C10.1884 17.6125 10.1842 17.6209 10.1763 17.6272ZM11.7275 17.3504C11.6782 17.362 11.6278 17.3756 11.5758 17.3914C11.5243 17.4071 11.4702 17.4213 11.4146 17.435C11.3972 17.4392 11.3804 17.4429 11.3647 17.4471C11.3489 17.4507 11.3321 17.4539 11.3143 17.4565L11.3069 17.4581C11.2649 17.4649 11.2224 17.4707 11.1788 17.4759C11.1357 17.4812 11.0921 17.4833 11.048 17.4817C11.0244 17.4807 11.0123 17.4691 11.0123 17.4476L11.0192 17.1488C11.0202 17.1383 11.0228 17.1299 11.0281 17.1225C11.0333 17.1157 11.0402 17.1126 11.0486 17.1136C11.0554 17.1136 11.0617 17.1136 11.0685 17.1126C11.0748 17.112 11.0827 17.112 11.0916 17.1136C11.0491 16.9556 11.0092 16.7975 10.9714 16.6394C10.9336 16.4814 10.8979 16.3223 10.8632 16.1626C10.8543 16.1679 10.8453 16.1726 10.8364 16.1768C10.8275 16.1805 10.8175 16.1857 10.807 16.1915C10.7997 16.1968 10.7918 16.1978 10.7829 16.1947C10.7739 16.192 10.7666 16.1857 10.7613 16.1773L10.6206 15.9137C10.6106 15.8927 10.6153 15.877 10.6348 15.8675C10.7198 15.8224 10.8044 15.7788 10.8889 15.7378C10.9735 15.6969 11.0617 15.6638 11.1552 15.638C11.1657 15.6338 11.1762 15.6307 11.1867 15.6281C11.1972 15.6254 11.2077 15.6228 11.2187 15.6202C11.2555 15.6113 11.2933 15.605 11.3326 15.6008C11.3605 15.5976 11.3752 15.6065 11.3768 15.6281L11.403 15.9295C11.4051 15.9526 11.3978 15.9641 11.381 15.9647C11.3631 15.9673 11.3452 15.9704 11.3269 15.9752C11.3085 15.9794 11.2901 15.9841 11.2707 15.9883C11.3416 16.3359 11.4235 16.682 11.517 17.0259C11.5359 17.0196 11.5548 17.0138 11.5747 17.0086C11.5941 17.0033 11.6152 16.9976 11.6377 16.9923C11.6598 16.9871 11.674 16.9955 11.6792 17.0175L11.7491 17.3111C11.7533 17.3326 11.7464 17.3457 11.7275 17.3504ZM13.6447 16.4236C13.6122 16.4945 13.5623 16.5601 13.4951 16.6205C13.4278 16.6809 13.3465 16.7355 13.2504 16.7849C13.2052 16.808 13.1564 16.83 13.1038 16.8505C13.0513 16.871 12.9973 16.8894 12.9426 16.9046C12.888 16.9198 12.835 16.9324 12.783 16.9424C12.731 16.9524 12.6822 16.9587 12.6354 16.9608C12.6207 16.9608 12.6092 16.9587 12.6003 16.954C12.5913 16.9493 12.5871 16.944 12.5882 16.9382L12.5803 16.7466C12.4958 16.5969 12.4144 16.4467 12.3361 16.296C12.2574 16.1453 12.1807 15.992 12.1061 15.8355C12.1019 15.8376 12.0983 15.8402 12.0962 15.8434C12.0773 15.8533 12.0641 15.856 12.0568 15.8528L11.8178 15.6669C11.8105 15.6596 11.8142 15.6433 11.8283 15.6176C11.8509 15.5729 11.8809 15.5314 11.9181 15.4942C11.9549 15.4569 11.9948 15.4222 12.0368 15.3902C12.0794 15.3582 12.1229 15.3293 12.1676 15.3035C12.2122 15.2778 12.2547 15.2547 12.2957 15.2337C12.3671 15.1969 12.4459 15.1675 12.5325 15.145C12.6192 15.1224 12.7042 15.1119 12.7883 15.114C12.8717 15.1161 12.9489 15.1334 13.0198 15.167C13.0902 15.2006 13.1459 15.2568 13.1863 15.3351C13.2194 15.3991 13.233 15.4663 13.2283 15.5367C13.223 15.6071 13.2005 15.6711 13.1606 15.7289C13.2598 15.7147 13.3475 15.7221 13.4247 15.7515C13.5014 15.7809 13.5665 15.847 13.6195 15.9505C13.6636 16.0361 13.6873 16.1185 13.6904 16.1978C13.692 16.2782 13.6773 16.3532 13.6447 16.4236ZM15.6275 14.9654C15.6207 14.9806 15.6092 14.9964 15.5924 15.0121C15.5341 15.0672 15.4726 15.1103 15.4075 15.1413C15.3424 15.1723 15.2747 15.1964 15.2038 15.2132C15.1329 15.23 15.0604 15.2416 14.9859 15.2489C14.9118 15.2563 14.8367 15.2642 14.7616 15.2726C14.7921 15.3025 14.822 15.3319 14.8519 15.3608C14.8819 15.3897 14.9123 15.4185 14.9444 15.4474C14.9601 15.4642 14.9712 15.48 14.9769 15.4957C14.9827 15.5115 14.9817 15.5236 14.9733 15.5314L14.7306 15.7888C14.7222 15.7966 14.7102 15.7982 14.6939 15.793C14.6776 15.7877 14.6613 15.7777 14.6445 15.762C14.3415 15.4705 14.0491 15.1691 13.7671 14.8577C13.7634 14.8609 13.7613 14.8646 13.7597 14.8677C13.7445 14.8824 13.7324 14.8892 13.7245 14.8877L13.4431 14.7763C13.4341 14.7716 13.4326 14.7548 13.4394 14.7259C13.4488 14.6766 13.4662 14.6288 13.4909 14.5826C13.5155 14.5364 13.5439 14.4922 13.5759 14.4497C13.608 14.4072 13.6416 14.3673 13.6773 14.33C13.713 14.2927 13.7476 14.2586 13.7807 14.2271C13.7986 14.2103 13.817 14.1935 13.8369 14.1772C13.8563 14.1609 13.8763 14.1457 13.8962 14.131C13.9703 14.0764 14.0464 14.0317 14.1236 13.9965C14.2008 13.9614 14.278 13.9414 14.3557 13.9351C14.4334 13.9293 14.5106 13.9414 14.5878 13.9719C14.665 14.0023 14.7406 14.0564 14.8152 14.1346C14.9076 14.2318 14.9606 14.3405 14.9754 14.4607C14.9901 14.581 14.9732 14.7007 14.9249 14.821C14.9969 14.8157 15.0651 14.8052 15.1303 14.7884C15.1954 14.7716 15.2579 14.7354 15.3172 14.6792C15.3267 14.6703 15.3382 14.665 15.3513 14.6634C15.3645 14.6624 15.3755 14.6655 15.3834 14.6739L15.626 14.9302C15.6338 14.9381 15.6344 14.9496 15.6275 14.9654ZM16.6274 13.4898C16.5922 13.5544 16.5559 13.6169 16.5197 13.6767C16.4814 13.7398 16.4415 13.8007 16.4 13.8595C16.3585 13.9183 16.3118 13.9782 16.2598 14.038C16.2487 14.0501 16.2309 14.0617 16.2073 14.0722C16.1836 14.0827 16.1516 14.0774 16.1106 14.0564C15.9253 13.9551 15.7483 13.8548 15.5787 13.7545C15.4091 13.6542 15.2384 13.5491 15.0662 13.4389C15.0646 13.4415 15.0625 13.4483 15.0604 13.4583C15.0562 13.4714 15.0499 13.4809 15.041 13.4882C15.0321 13.4951 15.0226 13.4977 15.0121 13.4951L14.7243 13.4116C14.7144 13.4095 14.7081 13.4016 14.7054 13.3885C14.7028 13.3753 14.7033 13.3612 14.7065 13.3465C14.7548 13.1978 14.8115 13.054 14.8777 12.9143C14.9433 12.7746 15.0168 12.6386 15.0972 12.5057C15.1093 12.4863 15.1213 12.4674 15.1334 12.449C15.1455 12.4307 15.1581 12.4123 15.1717 12.3934C15.177 12.385 15.1822 12.3766 15.188 12.3687C15.1938 12.3608 15.2001 12.3529 15.2064 12.3456C15.2169 12.3309 15.229 12.3214 15.2411 12.3167C15.2537 12.312 15.2631 12.3125 15.2689 12.3178L15.5015 12.511C15.5089 12.5173 15.5131 12.5262 15.5131 12.5367C15.5131 12.5472 15.5094 12.5577 15.501 12.5682C15.4952 12.5745 15.491 12.5803 15.4873 12.5856C15.4842 12.5913 15.4795 12.5971 15.4737 12.6029C15.4621 12.6186 15.4516 12.6349 15.4417 12.6507C15.4317 12.667 15.4217 12.6832 15.4117 12.7C15.3855 12.7399 15.3618 12.7799 15.3403 12.8203C15.3188 12.8607 15.2967 12.9017 15.2752 12.9442L15.2316 13.0298C15.314 13.086 15.3981 13.1396 15.4831 13.1915C15.4947 13.1663 15.5073 13.1406 15.5209 13.1154C15.5346 13.0902 15.5477 13.065 15.5609 13.0403C15.574 13.012 15.5887 12.9846 15.605 12.9584C15.6212 12.9321 15.6386 12.9054 15.6569 12.878C15.6774 12.8444 15.7 12.8119 15.7257 12.7793C15.7331 12.7704 15.742 12.7652 15.7525 12.7641C15.763 12.7631 15.7709 12.7652 15.7772 12.7704L16.0098 12.9636C16.0161 12.9694 16.0203 12.9762 16.023 12.9846C16.0256 12.993 16.024 13.0004 16.0182 13.0062C16.0093 13.0177 16.0004 13.0298 15.992 13.0419C15.9836 13.054 15.9752 13.0671 15.9668 13.0813C15.9368 13.1243 15.909 13.1695 15.8838 13.2173C15.868 13.2462 15.8539 13.274 15.8413 13.3018C15.8281 13.3291 15.815 13.358 15.8008 13.3874C15.8575 13.42 15.9137 13.4525 15.9694 13.4856C16.0251 13.5187 16.0818 13.5507 16.139 13.5817C16.1878 13.5045 16.2335 13.4273 16.2766 13.3512C16.3191 13.275 16.3658 13.1915 16.4168 13.1023C16.4247 13.0897 16.4336 13.0807 16.4451 13.075C16.4562 13.0692 16.4661 13.0692 16.4745 13.0739L16.7324 13.2304C16.7408 13.2357 16.7455 13.243 16.7471 13.2535C16.7487 13.264 16.7455 13.2745 16.7387 13.2861C16.6998 13.3564 16.6625 13.4252 16.6274 13.4898Z" fill="#16673D"/>
<path d="M5.43087 14.8803C5.38203 14.8472 5.3353 14.8314 5.29119 14.833C5.24708 14.8346 5.20402 14.8493 5.16201 14.8782C5.12 14.9065 5.07747 14.9454 5.03546 14.9942C4.99292 15.043 4.94934 15.0976 4.90418 15.1575C4.85849 15.2174 4.81858 15.2741 4.7834 15.3271C4.74822 15.3802 4.72301 15.43 4.70884 15.4768C4.69413 15.523 4.69308 15.5666 4.70569 15.6065C4.71829 15.6469 4.74874 15.6832 4.79758 15.7162C4.84747 15.7504 4.89473 15.7661 4.93884 15.7635C4.98295 15.7609 5.02548 15.7456 5.06749 15.7178C5.10897 15.69 5.15098 15.6516 5.19352 15.6023C5.23552 15.5534 5.27963 15.4988 5.32479 15.439C5.36995 15.3791 5.41039 15.3224 5.44557 15.2694C5.48075 15.2163 5.50596 15.1664 5.52014 15.1202C5.53484 15.074 5.53589 15.031 5.52434 14.9911C5.51173 14.9506 5.48075 14.9139 5.43087 14.8803Z" fill="#16673D"/>
<path d="M14.5001 14.4329C14.4597 14.3903 14.4192 14.3641 14.3783 14.3541C14.3373 14.3441 14.2969 14.3452 14.257 14.3562C14.2165 14.3672 14.1777 14.3867 14.1394 14.414C14.101 14.4413 14.0653 14.4707 14.0322 14.5022C14.0937 14.572 14.1556 14.6408 14.2176 14.708C14.2796 14.7758 14.342 14.843 14.4061 14.9107C14.4392 14.8745 14.4707 14.8372 14.4991 14.7989C14.5279 14.7605 14.5484 14.7206 14.561 14.6791C14.5736 14.6377 14.5762 14.5967 14.5689 14.5552C14.561 14.5143 14.5384 14.4733 14.5001 14.4329Z" fill="#16673D"/>
<path d="M5.57118 3.68547C5.64364 3.70857 5.71506 3.69807 5.7849 3.65344C5.85474 3.6088 5.89517 3.54894 5.90462 3.47332C5.9146 3.39771 5.88782 3.31106 5.82533 3.21234C5.76337 3.11467 5.69615 3.05428 5.62369 3.03118C5.55122 3.00807 5.47981 3.01858 5.40997 3.06321C5.34065 3.10732 5.30127 3.16718 5.29077 3.2428C5.28026 3.31842 5.30652 3.40506 5.36848 3.50273C5.43097 3.60198 5.49871 3.66289 5.57118 3.68547Z" fill="#16673D"/>
<path d="M15.5289 5.19456C15.5725 5.1368 15.6103 5.08691 15.6429 5.04543L15.6366 5.0365C15.583 5.05488 15.5205 5.07431 15.4502 5.09531C15.3798 5.11632 15.3089 5.1389 15.2375 5.1641L15.3898 5.37257C15.4386 5.31166 15.4853 5.25232 15.5289 5.19456Z" fill="#16673D"/>
<path d="M9.27057 15.0431C8.33797 13.3381 6.58567 12.1456 4.5435 11.9959C4.42693 11.7648 4.32611 11.5249 4.24261 11.2765C5.38053 11.3663 6.42708 11.7795 7.29089 12.4249C7.29667 12.4291 7.30192 12.4333 7.3077 12.4375C8.18569 13.0986 8.87253 13.9997 9.27057 15.0431Z" fill="#7DA53C"/>
<path d="M8.97341 15.0237C7.13604 14.8509 5.55965 13.7818 4.68481 12.2584C6.51641 12.4448 8.08859 13.5087 8.97341 15.0237Z" fill="#7DA53C"/>
<path d="M9.32092 5.83106L9.51574 4.18011L9.71056 5.83264C10.1926 5.85994 10.65 5.98019 11.0648 6.17554L12.0158 4.79449L11.4109 6.36248C11.8105 6.60613 12.1602 6.92435 12.4401 7.2977L13.9382 6.51896L12.6606 7.62695C12.7583 7.79131 12.8434 7.96407 12.9148 8.14366C12.9174 8.14996 12.9195 8.15626 12.9221 8.16256C12.9332 8.1904 12.9437 8.21875 12.9542 8.24711C12.9568 8.25446 12.96 8.26234 12.9626 8.26969C12.9673 8.28334 12.972 8.29752 12.9768 8.31117C13.1028 8.68348 13.1684 9.08204 13.1684 9.4974C13.1684 10.0629 13.0403 10.5986 12.8113 11.0769C12.856 11.0664 12.9017 11.058 12.9495 11.0517L13.0524 10.8763C13.2593 10.5235 13.598 9.94322 13.6258 9.89018C13.651 9.83977 13.7896 9.58719 14.0301 9.58719C14.1 9.58719 14.2328 9.61083 14.3389 9.76783C14.4418 9.92012 14.4718 10.1086 14.4775 10.2478C14.4875 10.2404 14.4943 10.2352 14.4991 10.2315C14.539 10.2021 14.6456 10.1338 14.7758 10.1338C14.8614 10.1338 14.9402 10.1638 15.0016 10.2173C15.0321 9.9826 15.0478 9.74315 15.0478 9.50003C15.0478 9.44331 15.0473 9.38713 15.0452 9.33094C15.0447 9.30784 15.0436 9.2842 15.0426 9.2611C15.0426 9.259 15.042 9.25637 15.042 9.25375C15.0415 9.23484 15.0405 9.21542 15.0394 9.19599C15.0389 9.17866 15.0378 9.1608 15.0362 9.14347C15.0352 9.12194 15.0336 9.09989 15.0315 9.07836C15.031 9.07206 15.0305 9.06628 15.0299 9.06051C15.0294 9.05578 15.0294 9.05105 15.0289 9.04633C15.0284 9.04265 15.0284 9.03898 15.0278 9.03583C15.0268 9.0185 15.0252 9.00117 15.0236 8.98384C15.0221 8.96599 15.02 8.94813 15.0184 8.93028C15.0173 8.92188 15.0168 8.91295 15.0158 8.90455C15.0142 8.88984 15.0131 8.87514 15.011 8.86044C15.0084 8.83786 15.0058 8.8158 15.0026 8.79322C15 8.77012 14.9969 8.74701 14.9932 8.72391C14.9906 8.70553 14.9879 8.68715 14.9853 8.66825C14.9853 8.66825 14.9848 8.66457 14.9848 8.66247C14.9827 8.64829 14.9806 8.63412 14.978 8.61994C14.9727 8.5858 14.9669 8.55115 14.9606 8.51702C14.9575 8.49864 14.9538 8.47973 14.9501 8.46135L14.9496 8.45715C14.9449 8.43195 14.9396 8.40674 14.9344 8.38101C14.9312 8.36578 14.9281 8.35108 14.9249 8.33585C14.9249 8.33585 14.9244 8.3327 14.9239 8.3306L14.9186 8.30592C14.9144 8.28597 14.9097 8.26601 14.905 8.24606C14.9039 8.24238 14.9034 8.23818 14.9023 8.2345C14.331 5.78065 12.1292 3.95221 9.50051 3.95221C6.49057 3.95221 4.04092 6.34882 3.95532 9.33724C4.12388 9.42809 4.40324 9.51473 4.74142 9.37242C5.12475 9.21121 5.60628 8.81265 5.97176 8.47658C6.06102 8.16887 6.18915 7.87743 6.35089 7.60909L5.09324 6.51844L6.56933 7.28615C6.85394 6.91017 7.20892 6.59038 7.61483 6.34725L7.01568 4.79397L7.95931 6.16451C8.37677 5.97127 8.83677 5.85417 9.32092 5.83106Z" fill="#FAB732"/>
<path d="M13.4789 11.0134L14.2413 10.4127C14.2413 10.4127 14.2812 10.0961 14.1473 9.89809C14.0134 9.69959 13.8654 9.93169 13.8344 9.99418C13.8029 10.0567 13.2536 10.994 13.2536 10.994L13.4789 11.0134Z" fill="#7DA53C"/>
<path d="M14.8839 10.4383C14.8245 10.3149 14.6912 10.3785 14.6365 10.4184C14.5667 10.4698 13.7181 11.1205 13.5217 11.2706C13.496 11.2906 13.4813 11.3016 13.4813 11.3016C13.4813 11.3016 13.015 11.1914 12.6469 11.3814C12.4873 11.4639 12.346 11.603 12.2699 11.8325C12.263 11.8609 12.2594 11.8877 12.2578 11.9139C12.242 12.2867 12.7897 12.4653 12.7897 12.4653C12.7897 12.4653 12.7698 12.5225 12.7545 12.6144C12.7141 12.8575 12.7068 13.3427 13.1946 13.6368C13.6 13.2745 13.9523 12.8533 14.2375 12.3865C14.0127 12.1681 13.8242 11.8719 13.8525 11.4912C14.2558 11.549 14.762 11.2738 14.8818 10.8485C14.886 10.8338 14.8896 10.819 14.8928 10.8043C14.8928 10.8043 14.8933 10.8012 14.8938 10.7991C14.898 10.7797 14.9017 10.7597 14.9038 10.7392C14.9222 10.588 14.9106 10.4945 14.8839 10.4383ZM13.2392 11.7091C13.2282 11.7952 13.1494 11.8556 13.0638 11.8446C12.9777 11.8336 12.9173 11.7548 12.9283 11.6692C12.9394 11.5831 13.0181 11.5227 13.1037 11.5337C13.1893 11.5448 13.2502 11.6235 13.2392 11.7091Z" fill="#7DA53C"/>
<path d="M12.9514 13.7523C12.4746 13.3869 12.4857 12.8518 12.5224 12.6024C12.4694 12.5745 12.4111 12.5404 12.3533 12.4984C12.2052 12.3907 12.106 12.2637 12.0582 12.1255C11.3976 12.7688 10.495 13.1653 9.50039 13.1653C9.06035 13.1653 8.63816 13.0876 8.24695 12.9453L8.2522 12.9495C8.2522 12.9495 9.11391 13.8217 9.53978 15.0478C10.8116 15.0389 11.9821 14.6015 12.9136 13.8736C12.9278 13.8327 12.9409 13.7923 12.9514 13.7523Z" fill="#C66A4D"/>
<path d="M14.6781 11.4959C14.5058 11.6183 14.3005 11.6976 14.0989 11.7228C14.1325 11.8819 14.2186 12.0331 14.3588 12.1796C14.4801 11.9606 14.5867 11.7322 14.6781 11.4959Z" fill="#C66A4D"/>
<path d="M5.83253 9.49743C5.83253 9.30314 5.84776 9.11253 5.87664 8.92664C5.2444 9.40291 4.80383 9.72586 4.37849 9.72586C4.23724 9.72586 4.09808 9.69015 3.95367 9.61348C3.96313 10.0987 4.03507 10.5687 4.16162 11.0155C5.0123 11.0686 5.8152 11.2944 6.53723 11.6588C6.09403 11.0523 5.83253 10.3051 5.83253 9.49743Z" fill="#C66A4D"/>
<path d="M10.4485 8.03015C10.7469 8.03015 10.9888 7.78823 10.9888 7.4898C10.9888 7.19138 10.7469 6.94946 10.4485 6.94946C10.1501 6.94946 9.90814 7.19138 9.90814 7.4898C9.90814 7.78823 10.1501 8.03015 10.4485 8.03015Z" fill="#7DA53C"/>
<path d="M8.68298 8.23614C8.88987 7.29777 9.11357 6.65345 9.22332 6.3783C8.04024 6.48122 7.0357 7.24526 6.59723 8.30914C6.9417 8.33066 7.62383 8.38528 8.26341 8.51235C8.45508 8.54964 8.64149 8.42676 8.68298 8.23614ZM7.82284 8.20254C7.75353 8.15003 7.69997 8.07809 7.67056 7.99459C7.66898 7.99879 7.65323 8.04973 7.67056 8.11852C7.68316 8.16735 7.71257 8.22512 7.77611 8.28288C7.77611 8.28288 7.55976 8.34222 7.43006 8.19098C7.50725 7.97779 7.44896 7.91635 7.44896 7.6769C7.44896 7.66692 7.44896 7.65747 7.44949 7.64749C7.44949 7.64224 7.45001 7.63752 7.45054 7.63227C7.46944 7.32507 7.7299 7.0872 8.03919 7.09823C8.14316 7.1019 8.23926 7.13341 8.32117 7.18487C8.32117 7.18487 8.32433 7.18697 8.33115 7.19117C8.36843 7.21218 8.51074 7.28201 8.75649 7.27991C8.76962 7.63384 8.63992 7.78192 8.63992 7.78192C8.63992 7.78192 8.62574 7.6979 8.58426 7.60128C8.52649 7.4679 8.41622 7.3109 8.21668 7.32402C8.4262 7.4658 8.49026 7.63279 8.49709 7.65327C8.49761 7.65432 8.49761 7.65537 8.49761 7.65537C8.52702 7.71786 8.54225 7.7877 8.53962 7.86121C8.5391 7.87592 8.53805 7.89062 8.53595 7.9048C8.50601 8.13112 8.30857 8.30178 8.07595 8.29338C7.98195 8.29023 7.89373 8.25662 7.82284 8.20254Z" fill="#7DA53C"/>
<path d="M12.2322 8.37364C12.1749 8.24919 12.0841 8.05805 11.9602 7.82018C11.9523 7.80547 11.9449 7.79129 11.9376 7.77712C11.9418 7.77187 11.9465 7.76661 11.9512 7.76189C12.0043 7.70203 12.0064 7.61276 11.9565 7.55027L11.9544 7.54764C11.9092 7.49093 11.8336 7.47308 11.769 7.49723C11.6603 7.34075 11.5994 7.30294 11.5994 7.30294L11.454 7.39063C11.4603 7.47938 11.506 7.57075 11.5642 7.65897C11.5217 7.69362 11.4802 7.72671 11.4403 7.75769C11.433 7.76346 11.4251 7.76924 11.4177 7.77502C11.3295 7.84223 11.2471 7.90052 11.1725 7.9504C11.1641 7.95565 11.1562 7.96143 11.1483 7.96616C11.1336 7.97561 11.1195 7.98506 11.1053 7.99399C11.0922 8.00239 11.0796 8.01027 11.0675 8.01814C11.0549 8.02602 11.0428 8.03337 11.0312 8.04072C11.0192 8.04755 11.0081 8.0549 10.9966 8.0612C10.9793 8.07118 10.963 8.08116 10.9472 8.09008C10.9425 8.09271 10.9378 8.09533 10.9331 8.09796C10.9236 8.10374 10.9141 8.10899 10.9052 8.11371C10.8674 8.13419 10.8359 8.151 10.8102 8.16413C10.807 8.1657 10.8039 8.16728 10.8007 8.16885C10.785 8.17673 10.7718 8.18303 10.7619 8.18723C10.7582 8.1888 10.755 8.19038 10.7524 8.19143C10.7477 8.19353 10.744 8.19511 10.7414 8.19668C10.7403 8.19721 10.7388 8.19773 10.7372 8.19878C10.7367 8.19878 10.7361 8.19931 10.7361 8.19931C10.6405 8.24342 10.5329 8.266 10.4211 8.2618C10.1449 8.25182 9.91171 8.08221 9.80774 7.84486C9.80774 7.84381 9.80721 7.84276 9.80669 7.84171C9.80616 7.84066 9.80511 7.83855 9.80459 7.83645C9.80406 7.8354 9.80354 7.83383 9.80301 7.83278C9.80196 7.83015 9.80091 7.827 9.79934 7.82333C9.79828 7.82018 9.79723 7.8165 9.79566 7.81282C9.79408 7.80915 9.79303 7.80547 9.79146 7.80127C9.78831 7.79287 9.78516 7.78289 9.78148 7.77187C9.78148 7.77134 9.78148 7.77134 9.78096 7.77082C9.72897 7.60908 9.63077 7.18584 9.72267 6.49847C9.7316 6.43178 9.68066 6.37244 9.61344 6.36981H9.6124C9.56881 6.36824 9.5247 6.36771 9.48164 6.36824C9.35246 6.82141 8.92817 8.60995 9.69431 9.98574C9.75785 10.0997 9.7358 10.242 9.6397 10.3297C8.96178 10.9477 8.16781 10.7991 7.87375 10.7135C7.80706 10.6941 7.76662 10.6274 7.77975 10.5597C7.81651 10.3691 7.88898 9.96369 7.93518 9.52627C7.96827 9.21067 7.77765 8.91294 7.47519 8.81684C7.09868 8.69659 6.70642 8.61415 6.5032 8.57529C6.42234 8.83574 6.37455 9.11038 6.36457 9.39604C6.35355 9.70953 6.38925 10.0141 6.46487 10.3034C6.50268 10.2362 6.57462 10.1905 6.65759 10.1905C6.70222 10.1905 6.7437 10.2037 6.77836 10.2268V9.77307V9.47113L7.56761 9.29627V9.322V9.59821V10.2625C7.56761 10.3848 7.46836 10.4835 7.34653 10.4835C7.22418 10.4835 7.12546 10.3843 7.12546 10.2625C7.12546 10.1401 7.22471 10.0414 7.34653 10.0414C7.39117 10.0414 7.43265 10.0545 7.46731 10.0776V9.62079L6.87813 9.75154V10.4127C6.87813 10.535 6.77889 10.6337 6.65706 10.6337C6.62293 10.6337 6.5909 10.6259 6.56201 10.6122C6.80199 11.2502 7.24414 11.7921 7.81388 12.1555L8.03653 11.0685C8.05806 10.9625 8.15573 10.8895 8.26391 10.8984L8.45925 10.9147C8.55272 10.9225 8.61258 11.0171 8.58055 11.1053L8.12738 12.3304C8.40726 12.4669 8.7113 12.5635 9.03162 12.6113L8.90612 11.0302C8.89982 10.9551 8.94288 10.8847 9.01324 10.8569L9.27475 10.7535C9.35036 10.7235 9.43123 10.7813 9.42756 10.8622L9.35089 12.6428C9.36402 12.6439 9.37714 12.6444 9.39027 12.6449C9.40025 12.6454 9.41075 12.6454 9.42073 12.646C9.5205 12.6486 9.60662 12.5777 9.62395 12.4795C9.69116 12.0993 9.83084 11.3148 9.87495 11.0943C9.92536 10.8275 9.97997 10.5912 10.1517 10.5628C10.3381 10.5319 10.4815 10.849 10.4815 10.849L11.0764 12.1539C11.1205 12.2506 11.235 12.2931 11.3316 12.2479C11.4183 12.2075 11.4618 12.1088 11.433 12.0174C11.2576 11.4608 10.9724 10.5534 10.8931 10.2535C10.765 9.7715 10.8994 9.13296 11.1352 8.76695C11.2591 8.57424 11.5448 8.23344 11.7879 7.95355C11.789 7.9546 11.7895 7.95618 11.7906 7.95723C11.8882 8.08903 12.0662 8.28385 12.1849 8.4104C12.2059 8.43141 12.2464 8.40463 12.2322 8.37364Z" fill="#7DA53C"/>
<path d="M11.404 7.31497L11.5615 7.22518C11.5615 7.22518 11.6167 7.08813 11.4507 6.9495C11.2848 6.81087 11.2076 6.76728 11.1997 6.65228C11.1761 6.67434 10.9272 7.17162 11.404 7.31497Z" fill="#7DA53C"/>
<path d="M71.028 17.78C71.2067 17.78 71.3413 17.74 71.432 17.66C71.5253 17.5773 71.572 17.472 71.572 17.344C71.572 17.2347 71.536 17.144 71.464 17.072C71.3947 17 71.284 16.9427 71.132 16.9L70.784 16.796C70.672 16.7613 70.5747 16.7173 70.492 16.664C70.4093 16.608 70.3453 16.54 70.3 16.46C70.2573 16.3773 70.236 16.2813 70.236 16.172C70.236 15.9667 70.3107 15.8067 70.46 15.692C70.6093 15.5747 70.808 15.516 71.056 15.516C71.2 15.516 71.328 15.532 71.44 15.564C71.5547 15.5933 71.644 15.632 71.708 15.68C71.7747 15.728 71.808 15.7787 71.808 15.832C71.808 15.8667 71.7987 15.8987 71.78 15.928C71.7613 15.9547 71.7373 15.976 71.708 15.992C71.6413 15.9387 71.5507 15.892 71.436 15.852C71.324 15.812 71.2013 15.792 71.068 15.792C70.9133 15.792 70.7907 15.8267 70.7 15.896C70.6093 15.9627 70.564 16.0547 70.564 16.172C70.564 16.2653 70.596 16.3413 70.66 16.4C70.7267 16.4587 70.8333 16.5093 70.98 16.552L71.224 16.624C71.4347 16.6827 71.6 16.768 71.72 16.88C71.8427 16.992 71.904 17.1467 71.904 17.344C71.904 17.5547 71.8267 17.7253 71.672 17.856C71.52 17.9867 71.3053 18.052 71.028 18.052C70.8653 18.052 70.7227 18.0347 70.6 18C70.48 17.9627 70.3853 17.9173 70.316 17.864C70.2493 17.808 70.216 17.7533 70.216 17.7C70.216 17.6547 70.2293 17.6173 70.256 17.588C70.2853 17.556 70.3187 17.5333 70.356 17.52C70.4173 17.5787 70.504 17.6373 70.616 17.696C70.728 17.752 70.8653 17.78 71.028 17.78ZM74.661 16.784C74.661 17.0613 74.6103 17.2947 74.509 17.484C74.4077 17.6707 74.269 17.812 74.093 17.908C73.9197 18.004 73.7223 18.052 73.501 18.052C73.2823 18.052 73.085 18.004 72.909 17.908C72.733 17.812 72.5943 17.6707 72.493 17.484C72.3917 17.2947 72.341 17.0613 72.341 16.784C72.341 16.5067 72.393 16.2747 72.497 16.088C72.601 15.8987 72.7397 15.756 72.913 15.66C73.089 15.564 73.285 15.516 73.501 15.516C73.7197 15.516 73.9157 15.564 74.089 15.66C74.265 15.756 74.4037 15.8987 74.505 16.088C74.609 16.2747 74.661 16.5067 74.661 16.784ZM74.329 16.784C74.329 16.4667 74.253 16.2227 74.101 16.052C73.9517 15.8787 73.7517 15.792 73.501 15.792C73.253 15.792 73.053 15.8787 72.901 16.052C72.7517 16.2227 72.677 16.4667 72.677 16.784C72.677 17.1013 72.7517 17.3467 72.901 17.52C73.0503 17.6907 73.2503 17.776 73.501 17.776C73.7543 17.776 73.9557 17.6907 74.105 17.52C74.2543 17.3467 74.329 17.1013 74.329 16.784ZM76.0685 17.128H75.7845C75.7098 17.016 75.6312 16.8987 75.5485 16.776C75.4685 16.6507 75.3885 16.524 75.3085 16.396C75.2312 16.268 75.1565 16.1427 75.0845 16.02C75.0152 15.8947 74.9525 15.7787 74.8965 15.672C74.9072 15.6427 74.9272 15.6147 74.9565 15.588C74.9858 15.5587 75.0245 15.544 75.0725 15.544C75.1232 15.544 75.1618 15.5573 75.1885 15.584C75.2178 15.6107 75.2472 15.6507 75.2765 15.704C75.3112 15.7653 75.3498 15.8347 75.3925 15.912C75.4378 15.9867 75.4845 16.0667 75.5325 16.152C75.5805 16.2347 75.6285 16.3173 75.6765 16.4C75.7245 16.4827 75.7685 16.56 75.8085 16.632C75.8512 16.704 75.8885 16.7667 75.9205 16.82H75.9365C76.0298 16.6653 76.1152 16.5187 76.1925 16.38C76.2698 16.2413 76.3445 16.1053 76.4165 15.972C76.4885 15.8387 76.5592 15.7053 76.6285 15.572C76.6445 15.5613 76.6645 15.5547 76.6885 15.552C76.7125 15.5467 76.7338 15.544 76.7525 15.544C76.8032 15.544 76.8405 15.556 76.8645 15.58C76.8912 15.604 76.9045 15.6373 76.9045 15.68C76.9045 15.7067 76.8832 15.764 76.8405 15.852C76.8005 15.9373 76.7432 16.0453 76.6685 16.176C76.5938 16.304 76.5058 16.4493 76.4045 16.612C76.3032 16.7747 76.1912 16.9467 76.0685 17.128ZM75.7645 16.972H76.0885V17.992C76.0752 17.9973 76.0538 18.0027 76.0245 18.008C75.9978 18.016 75.9698 18.02 75.9405 18.02C75.8818 18.02 75.8378 18.008 75.8085 17.984C75.7792 17.96 75.7645 17.9227 75.7645 17.872V16.972ZM78.1685 16.58H78.4965V17.968L78.3445 18C78.2938 18 78.2512 17.984 78.2165 17.952C78.1845 17.9173 78.1685 17.8747 78.1685 17.824V16.58ZM78.3445 18V17.72H79.6445C79.6578 17.7307 79.6685 17.748 79.6765 17.772C79.6845 17.796 79.6885 17.8227 79.6885 17.852C79.6885 17.8973 79.6765 17.9333 79.6525 17.96C79.6285 17.9867 79.5965 18 79.5565 18H78.3445ZM78.4965 16.82H78.1685V15.576C78.1818 15.5707 78.2018 15.5653 78.2285 15.56C78.2578 15.552 78.2885 15.548 78.3205 15.548C78.3792 15.548 78.4232 15.56 78.4525 15.584C78.4818 15.6053 78.4965 15.6427 78.4965 15.696V16.82ZM80.1764 16.548H80.5004V17.992C80.4871 17.9973 80.4671 18.0027 80.4404 18.008C80.4137 18.016 80.3844 18.02 80.3524 18.02C80.2937 18.02 80.2497 18.008 80.2204 17.984C80.1911 17.96 80.1764 17.9227 80.1764 17.872V16.548ZM80.5004 16.816H80.1764V15.576C80.1897 15.5707 80.2097 15.5653 80.2364 15.56C80.2657 15.552 80.2964 15.548 80.3284 15.548C80.3871 15.548 80.4297 15.56 80.4564 15.584C80.4857 15.6053 80.5004 15.6427 80.5004 15.696V16.816ZM82.5433 16.604V16.868H81.4433V16.604H82.5433ZM82.0833 16.868L82.2113 16.668C82.3926 16.668 82.5433 16.6987 82.6633 16.76C82.7833 16.8187 82.8726 16.8973 82.9313 16.996C82.9926 17.0947 83.0233 17.2053 83.0233 17.328C83.0233 17.5707 82.9353 17.7507 82.7593 17.868C82.5859 17.9853 82.3379 18.044 82.0153 18.044C81.9433 18.044 81.8713 18.0413 81.7993 18.036C81.7273 18.0333 81.6566 18.0267 81.5873 18.016C81.5179 18.0053 81.4513 17.992 81.3873 17.976C81.2753 17.944 81.2193 17.8827 81.2193 17.792V15.744C81.2193 15.7013 81.2299 15.668 81.2513 15.644C81.2753 15.62 81.3086 15.6027 81.3513 15.592C81.4419 15.5653 81.5379 15.548 81.6393 15.54C81.7433 15.5293 81.8539 15.524 81.9713 15.524C82.2726 15.524 82.5073 15.5787 82.6753 15.688C82.8433 15.7947 82.9273 15.9587 82.9273 16.18C82.9273 16.292 82.8993 16.396 82.8433 16.492C82.7899 16.5853 82.7019 16.6613 82.5793 16.72C82.4593 16.776 82.2979 16.804 82.0953 16.804L82.0593 16.604C82.2353 16.604 82.3686 16.568 82.4593 16.496C82.5499 16.4213 82.5953 16.3187 82.5953 16.188C82.5953 16.0547 82.5419 15.956 82.4353 15.892C82.3313 15.8253 82.1766 15.792 81.9713 15.792C81.8806 15.792 81.8006 15.796 81.7313 15.804C81.6619 15.8093 81.5979 15.8173 81.5393 15.828V17.732C81.6033 17.7453 81.6766 17.756 81.7593 17.764C81.8446 17.772 81.9299 17.776 82.0153 17.776C82.2366 17.776 82.4046 17.7387 82.5193 17.664C82.6339 17.5893 82.6913 17.4747 82.6913 17.32C82.6913 17.1813 82.6393 17.072 82.5353 16.992C82.4339 16.9093 82.2833 16.868 82.0833 16.868ZM83.9378 16.808H84.3978C84.5951 16.808 84.7498 16.7653 84.8618 16.68C84.9738 16.5947 85.0298 16.468 85.0298 16.3C85.0298 16.1347 84.9711 16.0093 84.8538 15.924C84.7365 15.8387 84.5685 15.796 84.3498 15.796C84.2778 15.796 84.2045 15.8 84.1298 15.808C84.0578 15.8133 83.9938 15.8213 83.9378 15.832V16.808ZM84.3978 17.08H83.6138V15.744C83.6138 15.7013 83.6245 15.6693 83.6458 15.648C83.6698 15.624 83.7031 15.6053 83.7458 15.592C83.8231 15.568 83.9178 15.5507 84.0298 15.54C84.1445 15.5293 84.2551 15.524 84.3618 15.524C84.6951 15.524 84.9445 15.592 85.1098 15.728C85.2751 15.864 85.3578 16.0547 85.3578 16.3C85.3578 16.4573 85.3218 16.5947 85.2498 16.712C85.1778 16.8293 85.0711 16.92 84.9298 16.984C84.7885 17.048 84.6111 17.08 84.3978 17.08ZM84.4058 16.976L84.6458 16.856C84.7205 16.9493 84.7978 17.0467 84.8778 17.148C84.9578 17.2493 85.0351 17.348 85.1098 17.444C85.1845 17.54 85.2511 17.6267 85.3098 17.704C85.3685 17.7787 85.4138 17.8373 85.4458 17.88C85.4351 17.9253 85.4111 17.9613 85.3738 17.988C85.3391 18.0147 85.3031 18.028 85.2658 18.028C85.2205 18.028 85.1831 18.0173 85.1538 17.996C85.1245 17.972 85.0938 17.9387 85.0618 17.896L84.4058 16.976ZM83.6138 16.992H83.9418V17.992C83.9258 17.9973 83.9045 18.0027 83.8778 18.008C83.8511 18.016 83.8218 18.02 83.7898 18.02C83.7311 18.02 83.6871 18.008 83.6578 17.984C83.6285 17.96 83.6138 17.9227 83.6138 17.872V16.992ZM85.9693 16.536H86.2933V17.968C86.2826 17.9707 86.2626 17.9773 86.2333 17.988C86.2039 17.996 86.1746 18 86.1453 18C86.0919 18 86.0493 17.984 86.0173 17.952C85.9853 17.9173 85.9693 17.8747 85.9693 17.824V16.536ZM86.2933 17.008L85.9693 17.004V15.744C85.9693 15.6907 85.9853 15.648 86.0173 15.616C86.0493 15.584 86.0919 15.568 86.1453 15.568C86.1746 15.568 86.2039 15.572 86.2333 15.58C86.2626 15.588 86.2826 15.5947 86.2933 15.6V17.008ZM86.1453 16.888V16.616H87.3493C87.3573 16.6267 87.3653 16.644 87.3733 16.668C87.3813 16.692 87.3853 16.7173 87.3853 16.744C87.3853 16.7867 87.3746 16.8213 87.3533 16.848C87.3319 16.8747 87.3013 16.888 87.2613 16.888H86.1453ZM86.1453 18V17.728H87.4933C87.5013 17.7387 87.5093 17.756 87.5173 17.78C87.5253 17.8013 87.5293 17.8267 87.5293 17.856C87.5293 17.8987 87.5186 17.9333 87.4973 17.96C87.4759 17.9867 87.4453 18 87.4053 18H86.1453ZM86.1453 15.844V15.568H87.4733C87.4813 15.5787 87.4893 15.596 87.4973 15.62C87.5053 15.644 87.5093 15.6693 87.5093 15.696C87.5093 15.7387 87.4986 15.7747 87.4773 15.804C87.4559 15.8307 87.4253 15.844 87.3853 15.844H86.1453Z" fill="white"/>
<path d="M28.299 6.565V8.49H30.884V9.711H28.299V11.746H31.214V13H26.759V5.311H31.214V6.565H28.299ZM32.2175 9.953C32.2175 9.32233 32.3458 8.77233 32.6025 8.303C32.8592 7.82633 33.2148 7.45967 33.6695 7.203C34.1242 6.939 34.6448 6.807 35.2315 6.807C35.9868 6.807 36.6102 6.99767 37.1015 7.379C37.6002 7.753 37.9338 8.281 38.1025 8.963H36.4415C36.3535 8.699 36.2032 8.49367 35.9905 8.347C35.7852 8.193 35.5285 8.116 35.2205 8.116C34.7805 8.116 34.4322 8.27733 34.1755 8.6C33.9188 8.91533 33.7905 9.36633 33.7905 9.953C33.7905 10.5323 33.9188 10.9833 34.1755 11.306C34.4322 11.6213 34.7805 11.779 35.2205 11.779C35.8438 11.779 36.2508 11.5003 36.4415 10.943H38.1025C37.9338 11.603 37.6002 12.1273 37.1015 12.516C36.6028 12.9047 35.9795 13.099 35.2315 13.099C34.6448 13.099 34.1242 12.9707 33.6695 12.714C33.2148 12.45 32.8592 12.0833 32.6025 11.614C32.3458 11.1373 32.2175 10.5837 32.2175 9.953ZM41.9367 13.099C41.35 13.099 40.822 12.9707 40.3527 12.714C39.8833 12.45 39.513 12.0797 39.2417 11.603C38.9777 11.1263 38.8457 10.5763 38.8457 9.953C38.8457 9.32967 38.9813 8.77967 39.2527 8.303C39.5313 7.82633 39.909 7.45967 40.3857 7.203C40.8623 6.939 41.394 6.807 41.9807 6.807C42.5673 6.807 43.099 6.939 43.5757 7.203C44.0523 7.45967 44.4263 7.82633 44.6977 8.303C44.9763 8.77967 45.1157 9.32967 45.1157 9.953C45.1157 10.5763 44.9727 11.1263 44.6867 11.603C44.408 12.0797 44.0267 12.45 43.5427 12.714C43.066 12.9707 42.5307 13.099 41.9367 13.099ZM41.9367 11.757C42.2153 11.757 42.4757 11.691 42.7177 11.559C42.967 11.4197 43.165 11.2143 43.3117 10.943C43.4583 10.6717 43.5317 10.3417 43.5317 9.953C43.5317 9.37367 43.3777 8.93 43.0697 8.622C42.769 8.30667 42.3987 8.149 41.9587 8.149C41.5187 8.149 41.1483 8.30667 40.8477 8.622C40.5543 8.93 40.4077 9.37367 40.4077 9.953C40.4077 10.5323 40.5507 10.9797 40.8367 11.295C41.13 11.603 41.4967 11.757 41.9367 11.757ZM47.7853 6.565V8.49H50.3703V9.711H47.7853V11.746H50.7003V13H46.2453V5.311H50.7003V6.565H47.7853ZM54.4318 13.099C53.9332 13.099 53.4858 13.011 53.0898 12.835C52.6938 12.6517 52.3785 12.406 52.1438 12.098C51.9165 11.79 51.7918 11.449 51.7698 11.075H53.3208C53.3502 11.3097 53.4638 11.504 53.6618 11.658C53.8672 11.812 54.1202 11.889 54.4208 11.889C54.7142 11.889 54.9415 11.8303 55.1028 11.713C55.2715 11.5957 55.3558 11.4453 55.3558 11.262C55.3558 11.064 55.2532 10.9173 55.0478 10.822C54.8498 10.7193 54.5308 10.6093 54.0908 10.492C53.6362 10.382 53.2622 10.2683 52.9688 10.151C52.6828 10.0337 52.4335 9.854 52.2208 9.612C52.0155 9.37 51.9128 9.04367 51.9128 8.633C51.9128 8.29567 52.0082 7.98767 52.1988 7.709C52.3968 7.43033 52.6755 7.21033 53.0348 7.049C53.4015 6.88767 53.8305 6.807 54.3218 6.807C55.0478 6.807 55.6272 6.99033 56.0598 7.357C56.4925 7.71633 56.7308 8.204 56.7748 8.82H55.3008C55.2788 8.578 55.1762 8.38733 54.9928 8.248C54.8168 8.10133 54.5785 8.028 54.2778 8.028C53.9992 8.028 53.7828 8.07933 53.6288 8.182C53.4822 8.28467 53.4088 8.42767 53.4088 8.611C53.4088 8.81633 53.5115 8.974 53.7168 9.084C53.9222 9.18667 54.2412 9.293 54.6738 9.403C55.1138 9.513 55.4768 9.62667 55.7628 9.744C56.0488 9.86133 56.2945 10.0447 56.4998 10.294C56.7125 10.536 56.8225 10.8587 56.8298 11.262C56.8298 11.614 56.7308 11.9293 56.5328 12.208C56.3422 12.4867 56.0635 12.7067 55.6968 12.868C55.3375 13.022 54.9158 13.099 54.4318 13.099ZM57.698 9.953C57.698 9.32233 57.8263 8.77233 58.083 8.303C58.3396 7.82633 58.6953 7.45967 59.15 7.203C59.6046 6.939 60.1253 6.807 60.712 6.807C61.4673 6.807 62.0906 6.99767 62.582 7.379C63.0806 7.753 63.4143 8.281 63.583 8.963H61.922C61.834 8.699 61.6836 8.49367 61.471 8.347C61.2656 8.193 61.009 8.116 60.701 8.116C60.261 8.116 59.9126 8.27733 59.656 8.6C59.3993 8.91533 59.271 9.36633 59.271 9.953C59.271 10.5323 59.3993 10.9833 59.656 11.306C59.9126 11.6213 60.261 11.779 60.701 11.779C61.3243 11.779 61.7313 11.5003 61.922 10.943H63.583C63.4143 11.603 63.0806 12.1273 62.582 12.516C62.0833 12.9047 61.46 13.099 60.712 13.099C60.1253 13.099 59.6046 12.9707 59.15 12.714C58.6953 12.45 58.3396 12.0833 58.083 11.614C57.8263 11.1373 57.698 10.5837 57.698 9.953ZM70.4641 6.906V13H68.9131V12.23C68.7151 12.494 68.4548 12.703 68.1321 12.857C67.8168 13.0037 67.4721 13.077 67.0981 13.077C66.6215 13.077 66.1998 12.978 65.8331 12.78C65.4665 12.5747 65.1768 12.2777 64.9641 11.889C64.7588 11.493 64.6561 11.0237 64.6561 10.481V6.906H66.1961V10.261C66.1961 10.745 66.3171 11.119 66.5591 11.383C66.8011 11.6397 67.1311 11.768 67.5491 11.768C67.9745 11.768 68.3081 11.6397 68.5501 11.383C68.7921 11.119 68.9131 10.745 68.9131 10.261V6.906H70.4641ZM77.6486 9.821C77.6486 10.041 77.6339 10.239 77.6046 10.415H73.1496C73.1863 10.855 73.3403 11.1997 73.6116 11.449C73.8829 11.6983 74.2166 11.823 74.6126 11.823C75.1846 11.823 75.5916 11.5773 75.8336 11.086H77.4946C77.3186 11.6727 76.9813 12.1567 76.4826 12.538C75.9839 12.912 75.3716 13.099 74.6456 13.099C74.0589 13.099 73.5309 12.9707 73.0616 12.714C72.5996 12.45 72.2366 12.0797 71.9726 11.603C71.7159 11.1263 71.5876 10.5763 71.5876 9.953C71.5876 9.32233 71.7159 8.76867 71.9726 8.292C72.2293 7.81533 72.5886 7.44867 73.0506 7.192C73.5126 6.93533 74.0443 6.807 74.6456 6.807C75.2249 6.807 75.7419 6.93167 76.1966 7.181C76.6586 7.43033 77.0143 7.786 77.2636 8.248C77.5203 8.70267 77.6486 9.227 77.6486 9.821ZM76.0536 9.381C76.0463 8.985 75.9033 8.66967 75.6246 8.435C75.3459 8.193 75.0049 8.072 74.6016 8.072C74.2203 8.072 73.8976 8.18933 73.6336 8.424C73.3769 8.65133 73.2193 8.97033 73.1606 9.381H76.0536ZM80.3127 4.86V13H78.7727V4.86H80.3127ZM81.4382 9.931C81.4382 9.315 81.5592 8.76867 81.8012 8.292C82.0505 7.81533 82.3842 7.44867 82.8022 7.192C83.2275 6.93533 83.7005 6.807 84.2212 6.807C84.6759 6.807 85.0719 6.89867 85.4092 7.082C85.7539 7.26533 86.0289 7.49633 86.2342 7.775V6.906H87.7852V13H86.2342V12.109C86.0362 12.395 85.7612 12.6333 85.4092 12.824C85.0645 13.0073 84.6649 13.099 84.2102 13.099C83.6969 13.099 83.2275 12.967 82.8022 12.703C82.3842 12.439 82.0505 12.0687 81.8012 11.592C81.5592 11.108 81.4382 10.5543 81.4382 9.931ZM86.2342 9.953C86.2342 9.579 86.1609 9.26 86.0142 8.996C85.8675 8.72467 85.6695 8.51933 85.4202 8.38C85.1709 8.23333 84.9032 8.16 84.6172 8.16C84.3312 8.16 84.0672 8.22967 83.8252 8.369C83.5832 8.50833 83.3852 8.71367 83.2312 8.985C83.0845 9.249 83.0112 9.56433 83.0112 9.931C83.0112 10.2977 83.0845 10.6203 83.2312 10.899C83.3852 11.1703 83.5832 11.3793 83.8252 11.526C84.0745 11.6727 84.3385 11.746 84.6172 11.746C84.9032 11.746 85.1709 11.6763 85.4202 11.537C85.6695 11.3903 85.8675 11.185 86.0142 10.921C86.1609 10.6497 86.2342 10.327 86.2342 9.953Z" fill="white"/>
</svg>
