<svg width="84" height="20" viewBox="0 0 84 20" fill="none" xmlns="http://www.w3.org/2000/svg">
<path d="M12.6306 16.1495C12.594 16.0755 12.5478 16.034 12.4923 16.0256C12.436 16.0172 12.3794 16.0288 12.3208 16.0603C12.2681 16.0886 12.2211 16.1248 12.1799 16.1695C12.21 16.2304 12.2391 16.2882 12.2672 16.3417C12.2952 16.3953 12.3253 16.4525 12.3563 16.5129C12.383 16.5134 12.413 16.5082 12.4471 16.4972C12.4812 16.4861 12.5128 16.473 12.5418 16.4572C12.5764 16.4383 12.6025 16.4158 12.619 16.3895C12.6355 16.3632 12.6466 16.3349 12.6516 16.306C12.6566 16.2766 12.6566 16.2482 12.6516 16.2204C12.6471 16.1921 12.6401 16.1684 12.6306 16.1495Z" fill="white"/>
<path d="M12.2575 15.7331C12.2785 15.6979 12.277 15.6548 12.252 15.6039C12.2314 15.5619 12.2068 15.533 12.1783 15.5183C12.1497 15.5031 12.1197 15.4968 12.087 15.4983C12.0545 15.5004 12.0219 15.5083 11.9883 15.5225C11.9547 15.5367 11.9231 15.5524 11.8926 15.5687C11.9376 15.6711 11.9848 15.7725 12.0339 15.8727C12.0549 15.8654 12.0756 15.8575 12.0966 15.8502C12.1177 15.8428 12.1367 15.8339 12.1547 15.8244C12.2019 15.7987 12.2359 15.7688 12.2575 15.7331Z" fill="white"/>
<path d="M9.06823 1C4.5871 1 0.95459 4.80549 0.95459 9.5C0.95459 14.1945 4.5871 18 9.06823 18C13.5493 18 17.1819 14.1945 17.1819 9.5C17.1819 4.80549 13.5493 1 9.06823 1ZM14.1353 5.02972C14.1648 5.01711 14.203 5.00346 14.2491 4.98771C14.2952 4.97195 14.3449 4.95515 14.3984 4.9373C14.4521 4.91944 14.5072 4.90106 14.5644 4.88321C14.6215 4.86483 14.6762 4.84803 14.7283 4.83175C14.7804 4.81547 14.828 4.80077 14.8711 4.78711C14.9142 4.77346 14.9493 4.76348 14.9759 4.75666C14.9944 4.76506 15.018 4.78134 15.0465 4.80654C15.0752 4.83175 15.1002 4.85905 15.1213 4.88899C15.1518 4.93257 15.1728 4.97563 15.1844 5.01816C15.1959 5.0607 15.1919 5.09693 15.1719 5.12739C15.1353 5.18357 15.0922 5.24711 15.0421 5.318C14.9919 5.38889 14.9403 5.46188 14.8867 5.53592C14.833 5.61049 14.7799 5.68348 14.7272 5.7549C14.6747 5.82631 14.627 5.89038 14.5849 5.94604C14.5654 5.94446 14.5448 5.93606 14.5228 5.92083C14.5007 5.9056 14.4796 5.88355 14.4591 5.85414C14.43 5.81213 14.4165 5.77748 14.4185 5.74964C14.4206 5.72181 14.4335 5.69293 14.4581 5.66248L14.5468 5.54118L14.3478 5.25499C14.3068 5.26969 14.2672 5.28492 14.228 5.30067C14.189 5.31643 14.1548 5.33008 14.1247 5.34268C14.1122 5.33271 14.0997 5.3222 14.0877 5.31065C14.0757 5.2991 14.0626 5.28387 14.049 5.26444C14.0195 5.22138 14.004 5.18357 14.0029 5.15102C14.002 5.11793 14.015 5.09115 14.0421 5.07067C14.0551 5.0607 14.0691 5.05335 14.0837 5.04757C14.0993 5.04337 14.1162 5.03707 14.1353 5.02972ZM13.9303 3.5384C13.9499 3.55257 13.9684 3.5678 13.9855 3.58408C14.0236 3.62084 14.045 3.65392 14.0506 3.68333C14.0561 3.71273 14.0416 3.74739 14.0069 3.78625L13.5208 4.34129L13.8255 4.63431C13.823 4.64796 13.8175 4.66424 13.81 4.68314C13.802 4.70204 13.7909 4.71937 13.7764 4.7367C13.7508 4.76611 13.7253 4.78186 13.7003 4.78501C13.6751 4.78764 13.6521 4.77924 13.631 4.75876L13.2792 4.42058C13.2471 4.3896 13.23 4.35495 13.2285 4.31661C13.2271 4.27828 13.2411 4.24257 13.2706 4.20844L13.8851 3.50741C13.8952 3.51371 13.9103 3.52474 13.9303 3.5384ZM12.2305 3.46383L12.6326 2.78538C12.6556 2.74653 12.6847 2.72289 12.7208 2.71397C12.7569 2.70504 12.793 2.71292 12.8301 2.73707L13.3148 3.05267C13.3148 3.06684 13.3122 3.08312 13.3082 3.1015C13.3042 3.11988 13.2962 3.13878 13.2846 3.15821C13.2646 3.19182 13.2425 3.2123 13.2191 3.21965C13.195 3.227 13.1704 3.22228 13.1454 3.20547L12.8201 2.99385L12.7183 3.16557L13.0581 3.38664C13.0581 3.40082 13.0556 3.41709 13.0516 3.43547C13.0476 3.45385 13.0396 3.47276 13.0281 3.49219C13.008 3.52579 12.9864 3.54627 12.9634 3.5531C12.9403 3.55992 12.9163 3.5552 12.8907 3.53892L12.6065 3.35408L12.4928 3.54575L12.8807 3.79833C12.8807 3.8125 12.8782 3.82931 12.8731 3.84874C12.8682 3.86817 12.8602 3.88759 12.8486 3.90702C12.8286 3.94063 12.807 3.96059 12.784 3.96689C12.7609 3.97319 12.7368 3.96794 12.7123 3.95218L12.2772 3.66915C12.2401 3.64499 12.2176 3.61401 12.2091 3.57673C12.2005 3.5405 12.2075 3.50269 12.2305 3.46383ZM10.9644 2.63888L11.1925 1.98039C11.2051 1.98249 11.2231 1.98616 11.2466 1.99141C11.2702 1.99666 11.2928 2.00349 11.3158 2.01189C11.3644 2.03027 11.3965 2.05233 11.4115 2.07701C11.4266 2.10221 11.4256 2.13949 11.4086 2.18938L11.2211 2.73077C11.2 2.79168 11.1995 2.84525 11.2196 2.89093C11.2396 2.93662 11.2752 2.96865 11.3263 2.98808C11.3779 3.00803 11.4256 3.00698 11.4692 2.98598C11.5128 2.96497 11.5449 2.92349 11.5659 2.86257L11.7925 2.20881C11.805 2.21091 11.823 2.21459 11.8466 2.21984C11.8702 2.22509 11.8927 2.23191 11.9158 2.24032C11.9644 2.2587 11.9965 2.28075 12.0116 2.30543C12.0266 2.33064 12.0256 2.36792 12.0085 2.4178L11.819 2.96445C11.798 3.02536 11.7689 3.07682 11.7324 3.11883C11.6957 3.16084 11.6531 3.19235 11.604 3.21335C11.5549 3.23435 11.5008 3.24486 11.4411 3.24381C11.3815 3.24276 11.3183 3.22963 11.2512 3.20442C11.184 3.17922 11.1278 3.14666 11.0822 3.10728C11.0366 3.06789 11.0016 3.02378 10.9769 2.97495C10.9524 2.92611 10.9388 2.87308 10.9364 2.81637C10.9339 2.75913 10.9433 2.70031 10.9644 2.63888ZM9.60058 2.23244C9.6126 2.13949 9.63761 2.05915 9.67474 1.99141C9.71178 1.92367 9.75798 1.86959 9.8121 1.8281C9.86623 1.78662 9.92684 1.75826 9.99404 1.74198C10.0611 1.72623 10.1308 1.72361 10.204 1.73411C10.3078 1.74881 10.3855 1.77769 10.4381 1.82075C10.4902 1.86381 10.5133 1.91107 10.5062 1.96358C10.5028 1.99089 10.4928 2.01399 10.4762 2.0329C10.4597 2.0518 10.4416 2.06598 10.4221 2.07543C10.395 2.05075 10.3655 2.02817 10.3329 2.00769C10.3003 1.98721 10.2597 1.97356 10.2121 1.96673C10.1208 1.9536 10.0457 1.97356 9.9865 2.02607C9.92732 2.07911 9.89028 2.16102 9.87577 2.27182C9.86069 2.3863 9.87625 2.47662 9.92283 2.54226C9.96951 2.6079 10.0397 2.6478 10.1344 2.66093C10.1835 2.66776 10.2261 2.66723 10.2626 2.65831C10.2993 2.64938 10.3334 2.63783 10.3655 2.62312C10.3804 2.63993 10.392 2.65988 10.4 2.68351C10.408 2.70714 10.41 2.73287 10.4066 2.76018C10.4035 2.78381 10.3945 2.80534 10.38 2.82477C10.3655 2.84367 10.3424 2.85837 10.3109 2.86835C10.2862 2.87728 10.2542 2.88358 10.2141 2.88831C10.174 2.89303 10.1254 2.89093 10.0687 2.88305C9.99251 2.87203 9.92283 2.8505 9.85973 2.81847C9.79654 2.78643 9.74395 2.74337 9.7008 2.68981C9.65766 2.63625 9.62711 2.57114 9.60907 2.495C9.58998 2.41938 9.5875 2.33169 9.60058 2.23244ZM8.34894 1.76404C8.41861 1.7005 8.51836 1.66532 8.64768 1.65744C8.6968 1.65429 8.74292 1.65534 8.78502 1.66007C8.82713 1.66479 8.86371 1.67372 8.8943 1.68685C8.92487 1.69998 8.94943 1.71678 8.96798 1.73778C8.98653 1.75826 8.99655 1.78294 8.99805 1.81182C8.99956 1.83966 8.99454 1.86434 8.98252 1.88587C8.97048 1.90792 8.95645 1.9263 8.93991 1.94205C8.91234 1.9242 8.87675 1.91055 8.83214 1.89952C8.78803 1.88902 8.73991 1.88534 8.68828 1.88849C8.63314 1.89164 8.59304 1.90319 8.56748 1.92315C8.54192 1.94258 8.53039 1.96621 8.5319 1.99404C8.53339 2.01819 8.54292 2.03605 8.56097 2.0476C8.57901 2.05915 8.60658 2.07071 8.64417 2.08173L8.73891 2.10851C8.79404 2.12427 8.84216 2.14212 8.88427 2.16207C8.92637 2.18203 8.96197 2.20513 8.99103 2.23139C9.02011 2.25817 9.04266 2.28915 9.0582 2.32486C9.07424 2.36057 9.08326 2.40205 9.08577 2.44879C9.08878 2.4992 9.08176 2.54593 9.06522 2.58847C9.04868 2.631 9.02262 2.66828 8.98702 2.70084C8.95144 2.7334 8.90682 2.75965 8.8532 2.77961C8.79956 2.79956 8.73741 2.81216 8.66623 2.81637C8.6136 2.81952 8.56447 2.81794 8.51936 2.81164C8.47425 2.80534 8.43466 2.79484 8.40107 2.78013C8.36748 2.76543 8.34042 2.746 8.32037 2.72237C8.30032 2.69874 8.2893 2.67143 8.28728 2.64045C8.28528 2.6079 8.2928 2.58059 8.30934 2.55748C8.32589 2.5349 8.34493 2.516 8.36599 2.50182C8.39857 2.5265 8.43867 2.54751 8.48628 2.56536C8.5339 2.58322 8.58703 2.59004 8.64568 2.58637C8.70633 2.58269 8.74944 2.56904 8.774 2.54488C8.79856 2.52125 8.81009 2.49342 8.80808 2.46244C8.80658 2.43356 8.79504 2.41098 8.774 2.3947C8.75294 2.37842 8.72187 2.36477 8.68126 2.35427L8.59204 2.33064C8.54292 2.31803 8.49831 2.30333 8.45821 2.28705C8.41811 2.27077 8.38353 2.25082 8.35495 2.22614C8.32589 2.20198 8.30282 2.17258 8.28528 2.13792C8.26774 2.10326 8.25771 2.06073 8.25471 2.01032C8.24719 1.9095 8.27927 1.82758 8.34894 1.76404ZM6.91939 2.04235C6.93794 2.00927 6.96851 1.98721 7.01062 1.97566L7.56349 1.82705C7.57302 1.83703 7.58254 1.84963 7.59257 1.86591C7.60259 1.88219 7.61011 1.90109 7.61562 1.92315C7.62514 1.96148 7.62414 1.99246 7.61261 2.01557C7.60109 2.03867 7.58054 2.0539 7.55196 2.06178L7.18104 2.16155L7.22916 2.35742L7.61662 2.25344C7.62615 2.26342 7.63567 2.27602 7.6457 2.2923C7.65572 2.30858 7.66324 2.32749 7.66876 2.34954C7.67827 2.38787 7.67727 2.41833 7.66625 2.44091C7.65522 2.46296 7.63517 2.47819 7.6061 2.48607L7.28229 2.57324L7.33593 2.79221L7.77852 2.67353C7.78805 2.68351 7.79807 2.69716 7.8081 2.71397C7.81812 2.7313 7.82614 2.75073 7.83166 2.77278C7.84118 2.81111 7.83968 2.84157 7.82815 2.8631C7.81612 2.88515 7.79657 2.89933 7.7685 2.90721L7.27227 3.04059C7.23016 3.05214 7.19307 3.04794 7.16149 3.02851C7.12992 3.00908 7.10886 2.97705 7.09783 2.93294L6.90837 2.15945C6.89684 2.11376 6.90084 2.07491 6.91939 2.04235ZM4.80114 3.2102C4.81667 3.14194 4.84575 3.07892 4.88736 3.02116C4.92895 2.9634 4.98208 2.91299 5.04625 2.87045C5.1104 2.82792 5.17656 2.79851 5.24474 2.78328C5.31291 2.76753 5.38007 2.767 5.44574 2.78118C5.5114 2.79536 5.57455 2.82477 5.6342 2.8694C5.69436 2.91456 5.74849 2.97652 5.79661 3.05582C5.84473 3.13511 5.87581 3.21283 5.89034 3.28897C5.90438 3.36511 5.90387 3.43757 5.88833 3.50584C5.8728 3.5741 5.84372 3.63712 5.80112 3.6954C5.75902 3.75369 5.70538 3.8041 5.64021 3.84769C5.57506 3.89075 5.50889 3.92015 5.44022 3.93591C5.37205 3.95166 5.30539 3.95218 5.24022 3.93748C5.17506 3.9233 5.11241 3.89337 5.05276 3.84716C4.99311 3.80148 4.93898 3.73899 4.89086 3.6597C4.84274 3.5804 4.81217 3.50269 4.79863 3.42707C4.78409 3.3504 4.78509 3.27846 4.80114 3.2102ZM3.75354 4.01152C3.78261 3.94641 3.82321 3.88654 3.87534 3.83246C3.95002 3.75527 4.0192 3.70853 4.08335 3.69068C4.14752 3.67335 4.19764 3.68333 4.23322 3.72113C4.25177 3.74109 4.2633 3.76314 4.26731 3.78835C4.27183 3.81355 4.27132 3.83718 4.26631 3.85924C4.23122 3.86659 4.19613 3.87762 4.16055 3.89232C4.12496 3.90702 4.09038 3.93223 4.05578 3.96741C3.99012 4.03515 3.95955 4.10972 3.96356 4.19111C3.96756 4.2725 4.00717 4.35284 4.08185 4.43266C4.15954 4.5151 4.23723 4.55711 4.31493 4.55816C4.39312 4.55974 4.46581 4.52508 4.53397 4.45524C4.56906 4.41901 4.59462 4.38278 4.61016 4.34707C4.6257 4.31136 4.63773 4.27565 4.64626 4.23995C4.66831 4.23732 4.69037 4.24047 4.71342 4.24835C4.73597 4.25622 4.75653 4.26988 4.77557 4.28983C4.79161 4.30716 4.80264 4.32764 4.80816 4.35127C4.81366 4.3749 4.81066 4.40326 4.79913 4.43529C4.79061 4.46102 4.77607 4.49147 4.75503 4.52771C4.73397 4.56394 4.70289 4.6028 4.66229 4.64533C4.60765 4.70204 4.54851 4.74668 4.48585 4.77924C4.4232 4.81179 4.35854 4.82965 4.29187 4.8328C4.22521 4.83595 4.15754 4.82177 4.08836 4.79026C4.01969 4.75928 3.95153 4.70782 3.88436 4.63693C3.8212 4.57024 3.77559 4.5004 3.74752 4.42846C3.71895 4.35652 3.70591 4.28511 3.70742 4.21474C3.70943 4.14438 3.72497 4.07664 3.75354 4.01152ZM2.78012 5.27284L3.10192 4.77924C3.11545 4.78029 3.13049 4.78291 3.14803 4.78816C3.16557 4.79341 3.18312 4.80234 3.20117 4.81547C3.23224 4.83805 3.25129 4.86168 3.2568 4.88688C3.26281 4.91209 3.2568 4.93782 3.24026 4.96355L3.02423 5.2949L3.18363 5.40885L3.40918 5.0628C3.42271 5.06385 3.43775 5.06647 3.4553 5.07172C3.47284 5.07698 3.49039 5.0859 3.50843 5.09903C3.53951 5.12161 3.55806 5.14471 3.56407 5.1694C3.56958 5.19408 3.56407 5.21876 3.54702 5.24501L3.35856 5.53435L3.5365 5.66143L3.79413 5.26602C3.80767 5.26707 3.82321 5.27022 3.84176 5.27599C3.8603 5.28177 3.87834 5.29122 3.89639 5.30435C3.92746 5.32693 3.94601 5.35003 3.95053 5.37471C3.95554 5.39939 3.94952 5.42408 3.93348 5.44876L3.64477 5.89195C3.62021 5.92976 3.58963 5.95234 3.55404 5.95917C3.51795 5.96652 3.48186 5.95706 3.44577 5.93133L2.81671 5.48131C2.78063 5.45558 2.75907 5.42355 2.75255 5.38627C2.74654 5.34846 2.75506 5.31065 2.78012 5.27284ZM3.94701 14.0013C3.93649 13.9871 3.93398 13.9734 3.939 13.9614C3.97558 13.8653 3.98862 13.7823 3.9791 13.7125C3.96907 13.6426 3.94501 13.5812 3.90691 13.5271C3.87584 13.484 3.84025 13.4546 3.79914 13.4399C3.75805 13.4252 3.72396 13.4294 3.6964 13.4536C3.66632 13.4793 3.65429 13.5176 3.66131 13.568C3.66832 13.6185 3.68236 13.6767 3.70442 13.7424C3.72597 13.808 3.74953 13.8794 3.77458 13.9572C3.79965 14.0343 3.81419 14.1121 3.81869 14.1903C3.82321 14.2685 3.81168 14.3457 3.78511 14.4219C3.75855 14.498 3.70542 14.5673 3.62522 14.6298C3.56407 14.6776 3.49841 14.7091 3.42773 14.7238C3.35706 14.7385 3.28637 14.7375 3.2152 14.7207C3.14402 14.7039 3.07435 14.6718 3.00719 14.6235C2.93952 14.5752 2.87836 14.5127 2.82323 14.4355C2.74102 14.3205 2.68739 14.1992 2.66233 14.0716C2.63726 13.944 2.64178 13.8138 2.67586 13.6815C2.68137 13.6589 2.68839 13.6416 2.69791 13.629C2.70744 13.6164 2.72147 13.6111 2.74053 13.6127L3.04177 13.6458C3.05029 13.6468 3.05831 13.6521 3.06482 13.6615C3.07335 13.6731 3.07635 13.6872 3.07435 13.703C3.06382 13.756 3.0568 13.8096 3.0543 13.8626C3.0513 13.9157 3.0533 13.9666 3.06032 14.0139C3.06733 14.0617 3.07686 14.1052 3.08989 14.1451C3.10292 14.1851 3.11846 14.2181 3.13751 14.2444C3.16758 14.2864 3.20066 14.3116 3.23725 14.3205C3.27385 14.3295 3.30843 14.3216 3.34101 14.2959C3.37459 14.2696 3.38964 14.2307 3.38512 14.1798C3.38111 14.1289 3.36908 14.0701 3.35003 14.0039C3.33048 13.9372 3.30893 13.8658 3.28537 13.7886C3.26132 13.7114 3.24678 13.6342 3.24177 13.556C3.23676 13.4783 3.24678 13.4026 3.27134 13.3291C3.2959 13.2556 3.34602 13.1894 3.42221 13.1296C3.47835 13.0855 3.53951 13.055 3.60517 13.0382C3.67083 13.0214 3.73699 13.0198 3.80366 13.034C3.87033 13.0482 3.93599 13.0776 4.00116 13.1222C4.06631 13.1669 4.12696 13.2288 4.1831 13.3071C4.26731 13.4247 4.32044 13.5423 4.34199 13.6599C4.36355 13.7776 4.36255 13.8847 4.33799 13.9813C4.33247 14.0039 4.32545 14.0212 4.31594 14.0338C4.30641 14.0464 4.29238 14.0517 4.27332 14.0501L3.97208 14.017C3.96255 14.0175 3.95454 14.0118 3.94701 14.0013ZM5.61516 15.3639C5.56904 15.4627 5.50539 15.5682 5.42469 15.6801C5.34449 15.7909 5.26429 15.8838 5.18409 15.9594C5.10388 16.035 5.02168 16.0886 4.93697 16.1201C4.85276 16.1516 4.76405 16.1579 4.67131 16.1401C4.57859 16.1217 4.47933 16.0755 4.37257 16.0014C4.2658 15.9269 4.18911 15.8497 4.1415 15.7688C4.09439 15.6879 4.07183 15.6034 4.07484 15.5141C4.07784 15.4254 4.1024 15.3309 4.14901 15.2316C4.19563 15.1324 4.25879 15.0273 4.33899 14.9165C4.42019 14.8047 4.50039 14.7112 4.58009 14.6361C4.65978 14.561 4.74199 14.508 4.8262 14.4765C4.91041 14.445 4.99913 14.4387 5.09186 14.4565C5.18459 14.4749 5.28384 14.5211 5.3906 14.5952C5.49737 14.6697 5.57406 14.7469 5.62167 14.8278C5.66879 14.9087 5.69135 14.9932 5.68834 15.0825C5.68533 15.1712 5.66077 15.2652 5.61516 15.3639ZM7.30435 15.6963C7.26425 15.8134 7.21262 15.9274 7.14947 16.0377C7.11538 16.0954 7.07779 16.1527 7.03618 16.2094C6.99508 16.2661 6.94997 16.3191 6.90135 16.369C6.85273 16.4189 6.8006 16.464 6.74546 16.504C6.69032 16.5439 6.63118 16.5764 6.56802 16.6006C6.53945 16.6783 6.51138 16.7565 6.48381 16.8348C6.45625 16.913 6.42968 16.9918 6.40412 17.0705C6.39709 17.0926 6.38807 17.1089 6.37605 17.121C6.36402 17.1325 6.35298 17.1362 6.34296 17.132L6.02568 17.0186C6.01565 17.0144 6.00914 17.0033 6.00663 16.9865C6.00413 16.9697 6.00663 16.9503 6.01515 16.9293C6.04071 16.85 6.06677 16.7728 6.09384 16.6967C6.12091 16.6205 6.14848 16.5439 6.17655 16.4661C6.14247 16.4058 6.1174 16.3391 6.10137 16.2661C6.08482 16.1931 6.0753 16.1185 6.07179 16.0419C6.06828 15.9657 6.07079 15.889 6.07881 15.8119C6.08683 15.7352 6.09736 15.6632 6.11139 15.5971C6.12693 15.5351 6.14447 15.4742 6.16302 15.4143C6.18206 15.3545 6.20412 15.2962 6.22918 15.24C6.23519 15.2248 6.24321 15.2138 6.25324 15.2064C6.26376 15.1996 6.27379 15.198 6.28382 15.2022L6.28582 15.2032L6.58907 15.3529C6.61113 15.366 6.61664 15.3865 6.60512 15.4154C6.58557 15.4616 6.56802 15.5083 6.55248 15.5545C6.53694 15.6008 6.52441 15.6485 6.51389 15.6969C6.49885 15.7698 6.48882 15.846 6.48281 15.9242C6.4768 16.003 6.48281 16.0797 6.50136 16.1542C6.52993 16.1364 6.5585 16.1143 6.58657 16.087C6.61463 16.0602 6.6412 16.0319 6.66627 16.0019C6.69133 15.972 6.71489 15.941 6.73745 15.909C6.76 15.877 6.77955 15.846 6.79608 15.8161C6.82064 15.7735 6.8432 15.7305 6.86275 15.6858C6.8823 15.6412 6.90084 15.5955 6.91739 15.5477C6.92039 15.5351 6.92741 15.5257 6.93744 15.5194C6.94746 15.5131 6.95799 15.5115 6.96851 15.5141L7.2858 15.6275C7.29633 15.6302 7.30335 15.6386 7.30635 15.6522C7.30936 15.6659 7.30886 15.6806 7.30435 15.6963ZM3.40818 10.6841C2.63677 6.42652 6.13445 2.7628 10.1985 3.57095C12.4902 4.02675 14.2927 5.91506 14.7277 8.31587C15.4992 12.5735 12.002 16.2377 7.93742 15.4296C5.64624 14.9738 3.84325 13.0849 3.40818 10.6841ZM9.71379 17.6272C9.70634 17.634 9.69632 17.6371 9.68372 17.6377C9.62463 17.6424 9.56545 17.6466 9.50631 17.6508C9.44717 17.6545 9.38852 17.6576 9.33088 17.6587C9.2562 17.6608 9.18401 17.6603 9.11534 17.6576C9.04667 17.6555 8.98402 17.6492 8.92788 17.6392C8.91234 17.6366 8.8943 17.6277 8.87324 17.6135C8.85269 17.5993 8.84016 17.5694 8.83615 17.5237C8.82663 17.3898 8.81911 17.2591 8.8131 17.1309C8.80708 17.0028 8.80257 16.8752 8.79956 16.7476C8.79655 16.62 8.79555 16.4919 8.79555 16.3627C8.79555 16.2335 8.79756 16.1012 8.80056 15.9652C8.80156 15.9421 8.80608 15.9232 8.8131 15.9085C8.82061 15.8938 8.82964 15.8859 8.84066 15.8859L9.178 15.8969C9.18902 15.8985 9.19755 15.9069 9.20407 15.9221C9.21058 15.9374 9.21358 15.9557 9.21209 15.9773C9.20607 16.1962 9.20507 16.4152 9.20808 16.6331C9.21158 16.8511 9.2196 17.0706 9.23213 17.2911C9.27574 17.29 9.31384 17.289 9.34691 17.2885C9.3795 17.2874 9.41158 17.2858 9.44266 17.2837C9.47374 17.2811 9.50631 17.279 9.5409 17.2764C9.57499 17.2738 9.61661 17.2711 9.66472 17.2685C9.67875 17.268 9.69078 17.2711 9.70128 17.2774C9.71178 17.2837 9.71684 17.2916 9.71684 17.3016L9.72381 17.603C9.72534 17.6125 9.72133 17.6209 9.71379 17.6272ZM11.1945 17.3504C11.1474 17.362 11.0993 17.3756 11.0497 17.3914C11.0005 17.4071 10.9489 17.4213 10.8958 17.435C10.8792 17.4392 10.8632 17.4429 10.8482 17.4471C10.8331 17.4507 10.817 17.4539 10.8001 17.4565L10.793 17.4581C10.7529 17.4649 10.7123 17.4707 10.6707 17.4759C10.6296 17.4812 10.588 17.4833 10.5459 17.4817C10.5233 17.4807 10.5118 17.4691 10.5118 17.4476L10.5184 17.1488C10.5193 17.1383 10.5218 17.1299 10.5269 17.1225C10.5318 17.1157 10.5384 17.1126 10.5464 17.1136C10.5529 17.1136 10.5589 17.1136 10.5654 17.1126C10.5714 17.112 10.579 17.112 10.5875 17.1136C10.5469 16.9556 10.5088 16.7975 10.4727 16.6394C10.4367 16.4814 10.4026 16.3223 10.3695 16.1626C10.361 16.1679 10.3524 16.1726 10.3439 16.1768C10.3354 16.1805 10.3258 16.1857 10.3158 16.1915C10.3088 16.1968 10.3013 16.1978 10.2928 16.1947C10.2842 16.192 10.2773 16.1857 10.2722 16.1773L10.1379 15.9137C10.1283 15.8927 10.1328 15.877 10.1514 15.8675C10.2326 15.8224 10.3133 15.7788 10.394 15.7378C10.4747 15.6969 10.5589 15.6638 10.6482 15.638C10.6582 15.6338 10.6682 15.6307 10.6783 15.6281C10.6883 15.6254 10.6983 15.6228 10.7088 15.6202C10.7439 15.6113 10.78 15.605 10.8175 15.6008C10.8442 15.5976 10.8582 15.6065 10.8597 15.6281L10.8847 15.9295C10.8867 15.9526 10.8798 15.9641 10.8637 15.9647C10.8466 15.9673 10.8296 15.9704 10.8121 15.9752C10.7945 15.9794 10.777 15.9841 10.7584 15.9883C10.8261 16.3359 10.9043 16.682 10.9935 17.0259C11.0116 17.0196 11.0296 17.0138 11.0486 17.0086C11.0671 17.0033 11.0873 16.9976 11.1088 16.9923C11.1299 16.9871 11.1434 16.9955 11.1484 17.0175L11.2151 17.3111C11.2191 17.3326 11.2125 17.3457 11.1945 17.3504ZM13.0245 16.4236C12.9935 16.4945 12.9459 16.5601 12.8817 16.6205C12.8175 16.6809 12.7399 16.7355 12.6482 16.7849C12.605 16.808 12.5584 16.83 12.5082 16.8505C12.4581 16.871 12.4066 16.8894 12.3543 16.9046C12.3022 16.9198 12.2516 16.9324 12.202 16.9424C12.1524 16.9524 12.1058 16.9587 12.0611 16.9608C12.0471 16.9608 12.0361 16.9587 12.0276 16.954C12.019 16.9493 12.015 16.944 12.0161 16.9382L12.0085 16.7466C11.9279 16.5969 11.8502 16.4467 11.7754 16.296C11.7003 16.1453 11.6271 15.992 11.5559 15.8355C11.5519 15.8376 11.5484 15.8402 11.5464 15.8434C11.5284 15.8533 11.5158 15.856 11.5088 15.8528L11.2807 15.6669C11.2737 15.6596 11.2772 15.6433 11.2907 15.6176C11.3123 15.5729 11.3409 15.5314 11.3764 15.4942C11.4115 15.4569 11.4496 15.4222 11.4897 15.3902C11.5304 15.3582 11.5719 15.3293 11.6146 15.3035C11.6571 15.2778 11.6977 15.2547 11.7368 15.2337C11.805 15.1969 11.8802 15.1675 11.9629 15.145C12.0456 15.1224 12.1268 15.1119 12.2071 15.114C12.2867 15.1161 12.3604 15.1334 12.428 15.167C12.4952 15.2006 12.5484 15.2568 12.587 15.3351C12.6186 15.3991 12.6315 15.4663 12.6271 15.5367C12.622 15.6071 12.6005 15.6711 12.5624 15.7289C12.6571 15.7147 12.7408 15.7221 12.8145 15.7515C12.8877 15.7809 12.9499 15.847 13.0005 15.9505C13.0426 16.0361 13.0652 16.1185 13.0682 16.1978C13.0697 16.2782 13.0556 16.3532 13.0245 16.4236ZM14.9172 14.9654C14.9107 14.9806 14.8997 14.9964 14.8837 15.0121C14.828 15.0672 14.7693 15.1103 14.7072 15.1413C14.6451 15.1723 14.5804 15.1964 14.5128 15.2132C14.4451 15.23 14.3759 15.2416 14.3048 15.2489C14.234 15.2563 14.1623 15.2642 14.0907 15.2726C14.1198 15.3025 14.1483 15.3319 14.1769 15.3608C14.2055 15.3897 14.2345 15.4185 14.2652 15.4474C14.2801 15.4642 14.2907 15.48 14.2962 15.4957C14.3017 15.5115 14.3008 15.5236 14.2927 15.5314L14.0611 15.7888C14.0531 15.7966 14.0416 15.7982 14.026 15.793C14.0105 15.7877 13.9949 15.7777 13.9789 15.762C13.6897 15.4705 13.4105 15.1691 13.1414 14.8577C13.1378 14.8609 13.1358 14.8646 13.1343 14.8677C13.1198 14.8824 13.1082 14.8892 13.1007 14.8877L12.8321 14.7763C12.8235 14.7716 12.8221 14.7548 12.8286 14.7259C12.8375 14.6766 12.8541 14.6288 12.8777 14.5826C12.9012 14.5364 12.9283 14.4922 12.9589 14.4497C12.9895 14.4072 13.0216 14.3673 13.0556 14.33C13.0897 14.2927 13.1228 14.2586 13.1543 14.2271C13.1714 14.2103 13.189 14.1935 13.208 14.1772C13.2265 14.1609 13.2456 14.1457 13.2646 14.131C13.3353 14.0764 13.408 14.0317 13.4817 13.9965C13.5554 13.9614 13.629 13.9414 13.7032 13.9351C13.7774 13.9293 13.8511 13.9414 13.9248 13.9719C13.9985 14.0023 14.0706 14.0564 14.1418 14.1346C14.23 14.2318 14.2806 14.3405 14.2947 14.4607C14.3088 14.581 14.2926 14.7007 14.2465 14.821C14.3153 14.8157 14.3804 14.8052 14.4426 14.7884C14.5047 14.7716 14.5644 14.7354 14.621 14.6792C14.6301 14.6703 14.6411 14.665 14.6536 14.6634C14.6662 14.6624 14.6767 14.6655 14.6842 14.6739L14.9158 14.9302C14.9232 14.9381 14.9238 14.9496 14.9172 14.9654ZM15.8717 13.4898C15.8381 13.5544 15.8034 13.6169 15.7688 13.6767C15.7323 13.7398 15.6942 13.8007 15.6546 13.8595C15.615 13.9183 15.5704 13.9782 15.5208 14.038C15.5102 14.0501 15.4932 14.0617 15.4706 14.0722C15.448 14.0827 15.4175 14.0774 15.3783 14.0564C15.2015 13.9551 15.0325 13.8548 14.8706 13.7545C14.7087 13.6542 14.5458 13.5491 14.3814 13.4389C14.3799 13.4415 14.3779 13.4483 14.3759 13.4583C14.3719 13.4714 14.3659 13.4809 14.3574 13.4882C14.3489 13.4951 14.3398 13.4977 14.3298 13.4951L14.0551 13.4116C14.0456 13.4095 14.0396 13.4016 14.037 13.3885C14.0345 13.3753 14.035 13.3612 14.0381 13.3465C14.0842 13.1978 14.1383 13.054 14.2015 12.9143C14.2641 12.7746 14.3343 12.6386 14.411 12.5057C14.4226 12.4863 14.434 12.4674 14.4456 12.449C14.4571 12.4307 14.4691 12.4123 14.4821 12.3934C14.4872 12.385 14.4921 12.3766 14.4977 12.3687C14.5032 12.3608 14.5092 12.3529 14.5152 12.3456C14.5253 12.3309 14.5368 12.3214 14.5484 12.3167C14.5604 12.312 14.5694 12.3125 14.5749 12.3178L14.7969 12.511C14.804 12.5173 14.808 12.5262 14.808 12.5367C14.808 12.5472 14.8045 12.5577 14.7965 12.5682C14.7909 12.5745 14.7869 12.5803 14.7834 12.5856C14.7804 12.5913 14.7759 12.5971 14.7704 12.6029C14.7593 12.6186 14.7493 12.6349 14.7398 12.6507C14.7303 12.667 14.7208 12.6832 14.7112 12.7C14.6862 12.7399 14.6636 12.7799 14.6431 12.8203C14.6225 12.8607 14.6014 12.9017 14.5809 12.9442L14.5393 13.0298C14.618 13.086 14.6982 13.1396 14.7794 13.1915C14.7904 13.1663 14.8025 13.1406 14.8154 13.1154C14.8285 13.0902 14.841 13.065 14.8536 13.0403C14.8661 13.012 14.8802 12.9846 14.8957 12.9584C14.9112 12.9321 14.9278 12.9054 14.9453 12.878C14.9648 12.8444 14.9864 12.8119 15.0109 12.7793C15.018 12.7704 15.0265 12.7652 15.0365 12.7641C15.0465 12.7631 15.0541 12.7652 15.0601 12.7704L15.2821 12.9636C15.2881 12.9694 15.2921 12.9762 15.2947 12.9846C15.2972 12.993 15.2957 13.0004 15.2901 13.0062C15.2816 13.0177 15.2732 13.0298 15.2651 13.0419C15.2571 13.054 15.2491 13.0671 15.2411 13.0813C15.2124 13.1243 15.1859 13.1695 15.1619 13.2173C15.1468 13.2462 15.1333 13.274 15.1213 13.3018C15.1087 13.3291 15.0962 13.358 15.0826 13.3874C15.1367 13.42 15.1904 13.4525 15.2436 13.4856C15.2967 13.5187 15.3509 13.5507 15.4055 13.5817C15.452 13.5045 15.4957 13.4273 15.5368 13.3512C15.5774 13.275 15.6219 13.1915 15.6706 13.1023C15.6782 13.0897 15.6867 13.0807 15.6976 13.075C15.7082 13.0692 15.7177 13.0692 15.7257 13.0739L15.9719 13.2304C15.9799 13.2357 15.9844 13.243 15.9859 13.2535C15.9874 13.264 15.9844 13.2745 15.9779 13.2861C15.9408 13.3564 15.9052 13.4252 15.8717 13.4898Z" fill="white"/>
<path d="M5.18395 14.8803C5.13733 14.8472 5.09272 14.8314 5.05062 14.833C5.00851 14.8346 4.96741 14.8493 4.92731 14.8782C4.88721 14.9065 4.84661 14.9454 4.80651 14.9942C4.76591 15.043 4.72431 15.0976 4.6812 15.1575C4.63759 15.2174 4.59949 15.2741 4.56591 15.3271C4.53233 15.3802 4.50826 15.43 4.49474 15.4768C4.4807 15.523 4.4797 15.5666 4.49173 15.6065C4.50376 15.6469 4.53283 15.6832 4.57945 15.7162C4.62707 15.7504 4.67218 15.7661 4.71428 15.7635C4.75639 15.7609 4.79699 15.7456 4.83709 15.7178C4.87668 15.69 4.91678 15.6516 4.95739 15.6023C4.99748 15.5534 5.03958 15.4988 5.08269 15.439C5.1258 15.3791 5.1644 15.3224 5.19798 15.2694C5.23156 15.2163 5.25563 15.1664 5.26916 15.1202C5.28319 15.074 5.2842 15.031 5.27317 14.9911C5.26113 14.9506 5.23156 14.9139 5.18395 14.8803Z" fill="white"/>
<path d="M13.8409 14.433C13.8024 14.3904 13.7637 14.3642 13.7247 14.3542C13.6855 14.3442 13.647 14.3453 13.6089 14.3563C13.5702 14.3673 13.5332 14.3868 13.4966 14.4141C13.46 14.4414 13.4259 14.4708 13.3943 14.5023C13.453 14.5721 13.5121 14.6409 13.5713 14.7081C13.6304 14.7759 13.69 14.8431 13.7512 14.9108C13.7828 14.8746 13.8129 14.8373 13.84 14.799C13.8675 14.7606 13.887 14.7207 13.8991 14.6792C13.9111 14.6378 13.9136 14.5968 13.9066 14.5553C13.8991 14.5144 13.8775 14.4734 13.8409 14.433Z" fill="white"/>
<path d="M5.31791 3.68547C5.38708 3.70857 5.45525 3.69807 5.52192 3.65344C5.58858 3.6088 5.62718 3.54894 5.6362 3.47332C5.64572 3.39771 5.62016 3.31106 5.56051 3.21234C5.50137 3.11467 5.4372 3.05428 5.36804 3.03118C5.29886 3.00807 5.2307 3.01858 5.16403 3.06321C5.09786 3.10732 5.06027 3.16718 5.05025 3.2428C5.04022 3.31842 5.06528 3.40506 5.12443 3.50273C5.18408 3.60198 5.24874 3.66289 5.31791 3.68547Z" fill="white"/>
<path d="M14.8231 5.19456C14.8647 5.1368 14.9008 5.08691 14.9319 5.04543L14.9259 5.0365C14.8747 5.05488 14.8151 5.07431 14.748 5.09531C14.6808 5.11632 14.6131 5.1389 14.5449 5.1641L14.6903 5.37257C14.7369 5.31166 14.7815 5.25232 14.8231 5.19456Z" fill="white"/>
<path d="M8.84922 15.0431C7.95901 13.3381 6.28636 12.1456 4.33702 11.9959C4.22575 11.7648 4.12951 11.5249 4.0498 11.2765C5.136 11.3663 6.13498 11.7795 6.95953 12.4249C6.96504 12.4291 6.97006 12.4333 6.97557 12.4375C7.81365 13.0986 8.46927 13.9997 8.84922 15.0431Z" fill="white"/>
<path d="M8.56559 15.0237C6.81173 14.8509 5.307 13.7818 4.47192 12.2584C6.22027 12.4448 7.72099 13.5087 8.56559 15.0237Z" fill="white"/>
<path d="M8.89734 5.83112L9.08331 4.18017L9.26927 5.8327C9.7294 5.86 10.166 5.98025 10.562 6.1756L11.4697 4.79455L10.8923 6.36254C11.2738 6.60619 11.6076 6.92441 11.8747 7.29776L13.3047 6.51902L12.0852 7.62701C12.1785 7.79137 12.2597 7.96413 12.3279 8.14372C12.3303 8.15002 12.3324 8.15632 12.3348 8.16262C12.3454 8.19046 12.3555 8.21881 12.3655 8.24717C12.368 8.25452 12.371 8.2624 12.3735 8.26975C12.378 8.2834 12.3825 8.29758 12.387 8.31123C12.5073 8.68354 12.5699 9.0821 12.5699 9.49746C12.5699 10.063 12.4477 10.5987 12.2291 11.077C12.2717 11.0665 12.3154 11.0581 12.361 11.0518L12.4592 10.8764C12.6567 10.5236 12.98 9.94328 13.0065 9.89024C13.0306 9.83983 13.1629 9.58725 13.3925 9.58725C13.4592 9.58725 13.586 9.61089 13.6872 9.76789C13.7855 9.92018 13.8141 10.1087 13.8195 10.2479C13.8291 10.2405 13.8356 10.2353 13.8402 10.2316C13.8782 10.2022 13.98 10.1339 14.1043 10.1339C14.186 10.1339 14.2612 10.1639 14.3198 10.2174C14.3489 9.98266 14.3639 9.74321 14.3639 9.50009C14.3639 9.44337 14.3634 9.38719 14.3614 9.331C14.361 9.3079 14.3599 9.28426 14.3589 9.26116C14.3589 9.25906 14.3584 9.25643 14.3584 9.25381C14.3579 9.2349 14.3569 9.21548 14.3559 9.19605C14.3554 9.17872 14.3544 9.16086 14.3528 9.14353C14.3519 9.122 14.3504 9.09995 14.3484 9.07842C14.3479 9.07212 14.3474 9.06634 14.3468 9.06057C14.3463 9.05584 14.3463 9.05111 14.3459 9.04639C14.3454 9.04271 14.3454 9.03904 14.3448 9.03589C14.3439 9.01856 14.3423 9.00123 14.3408 8.9839C14.3394 8.96605 14.3374 8.94819 14.3358 8.93034C14.3348 8.92194 14.3343 8.91301 14.3334 8.90461C14.3318 8.8899 14.3308 8.8752 14.3288 8.8605C14.3263 8.83792 14.3238 8.81586 14.3208 8.79328C14.3183 8.77018 14.3153 8.74707 14.3118 8.72397C14.3093 8.70559 14.3067 8.68721 14.3043 8.66831C14.3043 8.66831 14.3038 8.66463 14.3038 8.66253C14.3018 8.64835 14.2998 8.63418 14.2973 8.62C14.2922 8.58586 14.2867 8.55121 14.2807 8.51708C14.2777 8.4987 14.2742 8.47979 14.2707 8.46141L14.2702 8.45721C14.2657 8.43201 14.2606 8.4068 14.2557 8.38107C14.2526 8.36584 14.2497 8.35114 14.2466 8.33591C14.2466 8.33591 14.2461 8.33276 14.2456 8.33066L14.2406 8.30598C14.2366 8.28603 14.2321 8.26607 14.2276 8.24612C14.2266 8.24244 14.2261 8.23824 14.225 8.23456C13.6797 5.78071 11.578 3.95227 9.06877 3.95227C6.19565 3.95227 3.85734 6.34888 3.77563 9.3373C3.93653 9.42815 4.20319 9.51479 4.526 9.37248C4.89191 9.21127 5.35155 8.81271 5.70042 8.47664C5.78562 8.16893 5.90793 7.87749 6.06232 7.60915L4.86183 6.5185L6.27083 7.28621C6.5425 6.91023 6.88134 6.59044 7.2688 6.34731L6.69689 4.79403L7.59763 6.16457C7.99611 5.97133 8.4352 5.85423 8.89734 5.83112Z" fill="white"/>
<path d="M12.8662 11.0133L13.5939 10.4126C13.5939 10.4126 13.632 10.096 13.5042 9.89803C13.3764 9.69953 13.2351 9.93163 13.2055 9.99412C13.1755 10.0566 12.6511 10.9939 12.6511 10.9939L12.8662 11.0133Z" fill="white"/>
<path d="M14.2075 10.4383C14.1508 10.3149 14.0236 10.3785 13.9713 10.4184C13.9047 10.4698 13.0947 11.1205 12.9072 11.2706C12.8827 11.2906 12.8686 11.3016 12.8686 11.3016C12.8686 11.3016 12.4235 11.1914 12.0722 11.3814C11.9198 11.4639 11.785 11.603 11.7123 11.8325C11.7057 11.8609 11.7023 11.8877 11.7008 11.9139C11.6857 12.2867 12.2085 12.4653 12.2085 12.4653C12.2085 12.4653 12.1895 12.5225 12.1749 12.6144C12.1363 12.8575 12.1294 13.3427 12.595 13.6368C12.982 13.2745 13.3182 12.8533 13.5905 12.3865C13.3759 12.1681 13.196 11.8719 13.223 11.4912C13.6079 11.549 14.0911 11.2738 14.2055 10.8485C14.2095 10.8338 14.2129 10.819 14.216 10.8043C14.216 10.8043 14.2165 10.8012 14.2169 10.7991C14.221 10.7797 14.2245 10.7597 14.2265 10.7392C14.2441 10.588 14.233 10.4945 14.2075 10.4383ZM12.6376 11.7091C12.6271 11.7952 12.5518 11.8556 12.4701 11.8446C12.3879 11.8336 12.3303 11.7548 12.3408 11.6692C12.3514 11.5831 12.4265 11.5227 12.5082 11.5337C12.5899 11.5448 12.6481 11.6235 12.6376 11.7091Z" fill="white"/>
<path d="M12.3629 13.7523C11.9078 13.3869 11.9184 12.8518 11.9534 12.6024C11.9028 12.5745 11.8472 12.5404 11.792 12.4984C11.6506 12.3907 11.556 12.2637 11.5103 12.1255C10.8798 12.7688 10.0182 13.1653 9.06878 13.1653C8.64874 13.1653 8.24574 13.0876 7.87231 12.9453L7.87733 12.9495C7.87733 12.9495 8.69987 13.8217 9.10638 15.0478C10.3204 15.0389 11.4377 14.6015 12.3268 13.8736C12.3404 13.8327 12.3529 13.7923 12.3629 13.7523Z" fill="white"/>
<path d="M14.0109 11.4958C13.8464 11.6182 13.6504 11.6975 13.458 11.7227C13.4901 11.8818 13.5723 12.033 13.7061 12.1795C13.8219 11.9605 13.9236 11.7321 14.0109 11.4958Z" fill="white"/>
<path d="M5.56738 9.49743C5.56738 9.30314 5.58192 9.11253 5.60949 8.92664C5.00599 9.40291 4.58544 9.72586 4.17944 9.72586C4.04461 9.72586 3.91177 9.69015 3.77393 9.61348C3.78296 10.0987 3.85163 10.5687 3.97242 11.0155C4.78444 11.0686 5.55084 11.2944 6.24005 11.6588C5.817 11.0523 5.56738 10.3051 5.56738 9.49743Z" fill="white"/>
<path d="M9.97356 8.03015C10.2584 8.03015 10.4893 7.78823 10.4893 7.4898C10.4893 7.19138 10.2584 6.94946 9.97356 6.94946C9.68872 6.94946 9.45776 7.19138 9.45776 7.4898C9.45776 7.78823 9.68872 8.03015 9.97356 8.03015Z" fill="white"/>
<path d="M8.28831 8.23614C8.48579 7.29777 8.69932 6.65345 8.80409 6.3783C7.67478 6.48122 6.7159 7.24526 6.29736 8.30914C6.62618 8.33066 7.2773 8.38528 7.88781 8.51235C8.07077 8.54964 8.2487 8.42676 8.28831 8.23614ZM7.46726 8.20254C7.4011 8.15003 7.34998 8.07809 7.32191 7.99459C7.3204 7.99879 7.30536 8.04973 7.32191 8.11852C7.33393 8.16735 7.36201 8.22512 7.42266 8.28288C7.42266 8.28288 7.21614 8.34222 7.09234 8.19098C7.16602 7.97779 7.11038 7.91635 7.11038 7.6769C7.11038 7.66692 7.11038 7.65747 7.11088 7.64749C7.11088 7.64224 7.11138 7.63752 7.11189 7.63227C7.12993 7.32507 7.37855 7.0872 7.67378 7.09823C7.77302 7.1019 7.86476 7.13341 7.94294 7.18487C7.94294 7.18487 7.94596 7.18697 7.95247 7.19117C7.98805 7.21218 8.1239 7.28201 8.35847 7.27991C8.37101 7.63384 8.2472 7.78192 8.2472 7.78192C8.2472 7.78192 8.23367 7.6979 8.19407 7.60128C8.13893 7.4679 8.03367 7.3109 7.8432 7.32402C8.0432 7.4658 8.10435 7.63279 8.11087 7.65327L8.11136 7.65537C8.13944 7.71786 8.15397 7.7877 8.15146 7.86121C8.15097 7.87592 8.14996 7.89062 8.14796 7.9048C8.11938 8.13112 7.93091 8.30178 7.70887 8.29338C7.61914 8.29023 7.53493 8.25662 7.46726 8.20254Z" fill="white"/>
<path d="M11.676 8.37364C11.6213 8.24919 11.5347 8.05805 11.4164 7.82018C11.4089 7.80547 11.4018 7.79129 11.3948 7.77712C11.3988 7.77187 11.4033 7.76661 11.4078 7.76189C11.4585 7.70203 11.4605 7.61276 11.4129 7.55027L11.4109 7.54764C11.3677 7.49093 11.2956 7.47308 11.2339 7.49723C11.1301 7.34075 11.072 7.30294 11.072 7.30294L10.9332 7.39063C10.9392 7.47938 10.9828 7.57075 11.0384 7.65897C10.9978 7.69362 10.9582 7.72671 10.9201 7.75769C10.9132 7.76346 10.9056 7.76924 10.8986 7.77502C10.8144 7.84223 10.7357 7.90052 10.6645 7.9504C10.6565 7.95565 10.6489 7.96143 10.6414 7.96616C10.6274 7.97561 10.6139 7.98506 10.6004 7.99399C10.5879 8.00239 10.5758 8.01027 10.5643 8.01814C10.5522 8.02602 10.5407 8.03337 10.5296 8.04072C10.5182 8.04755 10.5076 8.0549 10.4966 8.0612C10.4801 8.07118 10.4645 8.08116 10.4494 8.09008C10.445 8.09271 10.4405 8.09533 10.436 8.09796C10.4269 8.10374 10.4178 8.10899 10.4094 8.11371C10.3733 8.13419 10.3432 8.151 10.3187 8.16413C10.3156 8.1657 10.3127 8.16728 10.3096 8.16885C10.2946 8.17673 10.282 8.18303 10.2726 8.18723C10.269 8.1888 10.266 8.19038 10.2635 8.19143C10.259 8.19353 10.2555 8.19511 10.253 8.19668L10.249 8.19878L10.2479 8.19931C10.1567 8.24342 10.054 8.266 9.94726 8.2618C9.68361 8.25182 9.46102 8.08221 9.36178 7.84486L9.36077 7.84171C9.36077 7.84171 9.35927 7.83855 9.35877 7.83645L9.35726 7.83278C9.35626 7.83015 9.35526 7.827 9.35376 7.82333C9.35275 7.82018 9.35174 7.8165 9.35025 7.81282C9.34874 7.80915 9.34773 7.80547 9.34624 7.80127C9.34323 7.79287 9.34022 7.78289 9.33671 7.77187L9.33621 7.77082C9.28659 7.60908 9.19285 7.18584 9.28057 6.49847C9.2891 6.43178 9.24047 6.37244 9.17631 6.36981H9.17532C9.13371 6.36824 9.0916 6.36771 9.0505 6.36824C8.92719 6.82141 8.52219 8.60995 9.2535 9.98574C9.31415 10.0997 9.29311 10.242 9.20137 10.3297C8.55427 10.9477 7.79639 10.7991 7.51569 10.7135C7.45204 10.6941 7.41343 10.6274 7.42597 10.5597C7.46106 10.3691 7.53023 9.96369 7.57433 9.52627C7.60592 9.21067 7.42396 8.91294 7.13525 8.81684C6.77586 8.69659 6.40143 8.61415 6.20744 8.57529C6.13026 8.83574 6.08464 9.11038 6.07511 9.39604C6.06459 9.70953 6.09867 10.0141 6.17085 10.3034C6.20695 10.2362 6.27562 10.1905 6.35481 10.1905C6.39742 10.1905 6.43701 10.2037 6.47009 10.2268V9.77307V9.47113L7.22347 9.29627V9.322V9.59821V10.2625C7.22347 10.3848 7.12873 10.4835 7.01244 10.4835C6.89565 10.4835 6.80142 10.3843 6.80142 10.2625C6.80142 10.1401 6.89616 10.0414 7.01244 10.0414C7.05505 10.0414 7.09464 10.0545 7.12773 10.0776V9.62079L6.56533 9.75154V10.4127C6.56533 10.535 6.4706 10.6337 6.35431 10.6337C6.32173 10.6337 6.29116 10.6259 6.26358 10.6122C6.49265 11.2502 6.9147 11.7921 7.45855 12.1555L7.67108 11.0685C7.69163 10.9625 7.78486 10.8895 7.88812 10.8984L8.07458 10.9147C8.1638 10.9225 8.22094 11.0171 8.19037 11.1053L7.7578 12.3304C8.02495 12.4669 8.31517 12.5635 8.62093 12.6113L8.50114 11.0302C8.49513 10.9551 8.53623 10.8847 8.60339 10.8569L8.85301 10.7535C8.92519 10.7235 9.00238 10.7813 8.99888 10.8622L8.92569 12.6428C8.93823 12.6439 8.95075 12.6444 8.96328 12.6449C8.97281 12.6454 8.98283 12.6454 8.99236 12.646C9.08759 12.6486 9.1698 12.5777 9.18634 12.4795C9.25049 12.0993 9.38383 11.3148 9.42593 11.0943C9.47405 10.8275 9.52618 10.5912 9.6901 10.5628C9.86803 10.5319 10.0049 10.849 10.0049 10.849L10.5728 12.1539C10.6149 12.2506 10.7242 12.2931 10.8164 12.2479C10.8991 12.2075 10.9407 12.1088 10.9132 12.0174C10.7457 11.4608 10.4735 10.5534 10.3978 10.2535C10.2755 9.7715 10.4038 9.13296 10.6289 8.76695C10.7472 8.57424 11.0199 8.23344 11.2519 7.95355L11.2545 7.95723C11.3477 8.08903 11.5176 8.28385 11.6309 8.4104C11.6509 8.43141 11.6896 8.40463 11.676 8.37364Z" fill="white"/>
<path d="M10.8856 7.31491L11.036 7.22512C11.036 7.22512 11.0886 7.08807 10.9302 6.94944C10.7718 6.81081 10.6981 6.76722 10.6906 6.65222C10.6681 6.67428 10.4305 7.17156 10.8856 7.31491Z" fill="white"/>
<path d="M66.269 16.92C66.4477 16.92 66.5823 16.88 66.673 16.8C66.7663 16.7173 66.813 16.612 66.813 16.484C66.813 16.3747 66.777 16.284 66.705 16.212C66.6357 16.14 66.525 16.0827 66.373 16.04L66.025 15.936C65.913 15.9013 65.8157 15.8573 65.733 15.804C65.6503 15.748 65.5863 15.68 65.541 15.6C65.4983 15.5173 65.477 15.4213 65.477 15.312C65.477 15.1067 65.5517 14.9467 65.701 14.832C65.8503 14.7147 66.049 14.656 66.297 14.656C66.441 14.656 66.569 14.672 66.681 14.704C66.7957 14.7333 66.885 14.772 66.949 14.82C67.0157 14.868 67.049 14.9187 67.049 14.972C67.049 15.0067 67.0397 15.0387 67.021 15.068C67.0023 15.0947 66.9783 15.116 66.949 15.132C66.8823 15.0787 66.7917 15.032 66.677 14.992C66.565 14.952 66.4423 14.932 66.309 14.932C66.1543 14.932 66.0317 14.9667 65.941 15.036C65.8503 15.1027 65.805 15.1947 65.805 15.312C65.805 15.4053 65.837 15.4813 65.901 15.54C65.9677 15.5987 66.0743 15.6493 66.221 15.692L66.465 15.764C66.6757 15.8227 66.841 15.908 66.961 16.02C67.0837 16.132 67.145 16.2867 67.145 16.484C67.145 16.6947 67.0677 16.8653 66.913 16.996C66.761 17.1267 66.5463 17.192 66.269 17.192C66.1063 17.192 65.9637 17.1747 65.841 17.14C65.721 17.1027 65.6263 17.0573 65.557 17.004C65.4903 16.948 65.457 16.8933 65.457 16.84C65.457 16.7947 65.4703 16.7573 65.497 16.728C65.5263 16.696 65.5597 16.6733 65.597 16.66C65.6583 16.7187 65.745 16.7773 65.857 16.836C65.969 16.892 66.1063 16.92 66.269 16.92ZM69.902 15.924C69.902 16.2013 69.8513 16.4347 69.75 16.624C69.6487 16.8107 69.51 16.952 69.334 17.048C69.1607 17.144 68.9633 17.192 68.742 17.192C68.5233 17.192 68.326 17.144 68.15 17.048C67.974 16.952 67.8353 16.8107 67.734 16.624C67.6327 16.4347 67.582 16.2013 67.582 15.924C67.582 15.6467 67.634 15.4147 67.738 15.228C67.842 15.0387 67.9807 14.896 68.154 14.8C68.33 14.704 68.526 14.656 68.742 14.656C68.9607 14.656 69.1567 14.704 69.33 14.8C69.506 14.896 69.6447 15.0387 69.746 15.228C69.85 15.4147 69.902 15.6467 69.902 15.924ZM69.57 15.924C69.57 15.6067 69.494 15.3627 69.342 15.192C69.1927 15.0187 68.9927 14.932 68.742 14.932C68.494 14.932 68.294 15.0187 68.142 15.192C67.9927 15.3627 67.918 15.6067 67.918 15.924C67.918 16.2413 67.9927 16.4867 68.142 16.66C68.2913 16.8307 68.4913 16.916 68.742 16.916C68.9953 16.916 69.1967 16.8307 69.346 16.66C69.4953 16.4867 69.57 16.2413 69.57 15.924ZM71.3095 16.268H71.0255C70.9508 16.156 70.8722 16.0387 70.7895 15.916C70.7095 15.7907 70.6295 15.664 70.5495 15.536C70.4722 15.408 70.3975 15.2827 70.3255 15.16C70.2562 15.0347 70.1935 14.9187 70.1375 14.812C70.1482 14.7827 70.1682 14.7547 70.1975 14.728C70.2268 14.6987 70.2655 14.684 70.3135 14.684C70.3642 14.684 70.4028 14.6973 70.4295 14.724C70.4588 14.7507 70.4882 14.7907 70.5175 14.844C70.5522 14.9053 70.5908 14.9747 70.6335 15.052C70.6788 15.1267 70.7255 15.2067 70.7735 15.292C70.8215 15.3747 70.8695 15.4573 70.9175 15.54C70.9655 15.6227 71.0095 15.7 71.0495 15.772C71.0922 15.844 71.1295 15.9067 71.1615 15.96H71.1775C71.2708 15.8053 71.3562 15.6587 71.4335 15.52C71.5108 15.3813 71.5855 15.2453 71.6575 15.112C71.7295 14.9787 71.8002 14.8453 71.8695 14.712C71.8855 14.7013 71.9055 14.6947 71.9295 14.692C71.9535 14.6867 71.9748 14.684 71.9935 14.684C72.0442 14.684 72.0815 14.696 72.1055 14.72C72.1322 14.744 72.1455 14.7773 72.1455 14.82C72.1455 14.8467 72.1242 14.904 72.0815 14.992C72.0415 15.0773 71.9842 15.1853 71.9095 15.316C71.8348 15.444 71.7468 15.5893 71.6455 15.752C71.5442 15.9147 71.4322 16.0867 71.3095 16.268ZM71.0055 16.112H71.3295V17.132C71.3162 17.1373 71.2948 17.1427 71.2655 17.148C71.2388 17.156 71.2108 17.16 71.1815 17.16C71.1228 17.16 71.0788 17.148 71.0495 17.124C71.0202 17.1 71.0055 17.0627 71.0055 17.012V16.112ZM73.4095 15.72H73.7375V17.108L73.5855 17.14C73.5348 17.14 73.4922 17.124 73.4575 17.092C73.4255 17.0573 73.4095 17.0147 73.4095 16.964V15.72ZM73.5855 17.14V16.86H74.8855C74.8988 16.8707 74.9095 16.888 74.9175 16.912C74.9255 16.936 74.9295 16.9627 74.9295 16.992C74.9295 17.0373 74.9175 17.0733 74.8935 17.1C74.8695 17.1267 74.8375 17.14 74.7975 17.14H73.5855ZM73.7375 15.96H73.4095V14.716C73.4228 14.7107 73.4428 14.7053 73.4695 14.7C73.4988 14.692 73.5295 14.688 73.5615 14.688C73.6202 14.688 73.6642 14.7 73.6935 14.724C73.7228 14.7453 73.7375 14.7827 73.7375 14.836V15.96ZM75.4174 15.688H75.7414V17.132C75.7281 17.1373 75.7081 17.1427 75.6814 17.148C75.6547 17.156 75.6254 17.16 75.5934 17.16C75.5347 17.16 75.4907 17.148 75.4614 17.124C75.4321 17.1 75.4174 17.0627 75.4174 17.012V15.688ZM75.7414 15.956H75.4174V14.716C75.4307 14.7107 75.4507 14.7053 75.4774 14.7C75.5067 14.692 75.5374 14.688 75.5694 14.688C75.6281 14.688 75.6707 14.7 75.6974 14.724C75.7267 14.7453 75.7414 14.7827 75.7414 14.836V15.956ZM77.7843 15.744V16.008H76.6843V15.744H77.7843ZM77.3243 16.008L77.4523 15.808C77.6336 15.808 77.7843 15.8387 77.9043 15.9C78.0243 15.9587 78.1136 16.0373 78.1723 16.136C78.2336 16.2347 78.2643 16.3453 78.2643 16.468C78.2643 16.7107 78.1763 16.8907 78.0003 17.008C77.8269 17.1253 77.5789 17.184 77.2563 17.184C77.1843 17.184 77.1123 17.1813 77.0403 17.176C76.9683 17.1733 76.8976 17.1667 76.8283 17.156C76.7589 17.1453 76.6923 17.132 76.6283 17.116C76.5163 17.084 76.4603 17.0227 76.4603 16.932V14.884C76.4603 14.8413 76.4709 14.808 76.4923 14.784C76.5163 14.76 76.5496 14.7427 76.5923 14.732C76.6829 14.7053 76.7789 14.688 76.8803 14.68C76.9843 14.6693 77.0949 14.664 77.2123 14.664C77.5136 14.664 77.7483 14.7187 77.9163 14.828C78.0843 14.9347 78.1683 15.0987 78.1683 15.32C78.1683 15.432 78.1403 15.536 78.0843 15.632C78.0309 15.7253 77.9429 15.8013 77.8203 15.86C77.7003 15.916 77.5389 15.944 77.3363 15.944L77.3003 15.744C77.4763 15.744 77.6096 15.708 77.7003 15.636C77.7909 15.5613 77.8363 15.4587 77.8363 15.328C77.8363 15.1947 77.7829 15.096 77.6763 15.032C77.5723 14.9653 77.4176 14.932 77.2123 14.932C77.1216 14.932 77.0416 14.936 76.9723 14.944C76.9029 14.9493 76.8389 14.9573 76.7803 14.968V16.872C76.8443 16.8853 76.9176 16.896 77.0003 16.904C77.0856 16.912 77.1709 16.916 77.2563 16.916C77.4776 16.916 77.6456 16.8787 77.7603 16.804C77.8749 16.7293 77.9323 16.6147 77.9323 16.46C77.9323 16.3213 77.8803 16.212 77.7763 16.132C77.6749 16.0493 77.5243 16.008 77.3243 16.008ZM79.1788 15.948H79.6388C79.8361 15.948 79.9908 15.9053 80.1028 15.82C80.2148 15.7347 80.2708 15.608 80.2708 15.44C80.2708 15.2747 80.2121 15.1493 80.0948 15.064C79.9775 14.9787 79.8095 14.936 79.5908 14.936C79.5188 14.936 79.4455 14.94 79.3708 14.948C79.2988 14.9533 79.2348 14.9613 79.1788 14.972V15.948ZM79.6388 16.22H78.8548V14.884C78.8548 14.8413 78.8655 14.8093 78.8868 14.788C78.9108 14.764 78.9441 14.7453 78.9868 14.732C79.0641 14.708 79.1588 14.6907 79.2708 14.68C79.3855 14.6693 79.4961 14.664 79.6028 14.664C79.9361 14.664 80.1855 14.732 80.3508 14.868C80.5161 15.004 80.5988 15.1947 80.5988 15.44C80.5988 15.5973 80.5628 15.7347 80.4908 15.852C80.4188 15.9693 80.3121 16.06 80.1708 16.124C80.0295 16.188 79.8521 16.22 79.6388 16.22ZM79.6468 16.116L79.8868 15.996C79.9615 16.0893 80.0388 16.1867 80.1188 16.288C80.1988 16.3893 80.2761 16.488 80.3508 16.584C80.4255 16.68 80.4921 16.7667 80.5508 16.844C80.6095 16.9187 80.6548 16.9773 80.6868 17.02C80.6761 17.0653 80.6521 17.1013 80.6148 17.128C80.5801 17.1547 80.5441 17.168 80.5068 17.168C80.4615 17.168 80.4241 17.1573 80.3948 17.136C80.3655 17.112 80.3348 17.0787 80.3028 17.036L79.6468 16.116ZM78.8548 16.132H79.1828V17.132C79.1668 17.1373 79.1455 17.1427 79.1188 17.148C79.0921 17.156 79.0628 17.16 79.0308 17.16C78.9721 17.16 78.9281 17.148 78.8988 17.124C78.8695 17.1 78.8548 17.0627 78.8548 17.012V16.132ZM81.2103 15.676H81.5343V17.108C81.5236 17.1107 81.5036 17.1173 81.4743 17.128C81.4449 17.136 81.4156 17.14 81.3863 17.14C81.3329 17.14 81.2903 17.124 81.2583 17.092C81.2263 17.0573 81.2103 17.0147 81.2103 16.964V15.676ZM81.5343 16.148L81.2103 16.144V14.884C81.2103 14.8307 81.2263 14.788 81.2583 14.756C81.2903 14.724 81.3329 14.708 81.3863 14.708C81.4156 14.708 81.4449 14.712 81.4743 14.72C81.5036 14.728 81.5236 14.7347 81.5343 14.74V16.148ZM81.3863 16.028V15.756H82.5903C82.5983 15.7667 82.6063 15.784 82.6143 15.808C82.6223 15.832 82.6263 15.8573 82.6263 15.884C82.6263 15.9267 82.6156 15.9613 82.5943 15.988C82.5729 16.0147 82.5423 16.028 82.5023 16.028H81.3863ZM81.3863 17.14V16.868H82.7343C82.7423 16.8787 82.7503 16.896 82.7583 16.92C82.7663 16.9413 82.7703 16.9667 82.7703 16.996C82.7703 17.0387 82.7596 17.0733 82.7383 17.1C82.7169 17.1267 82.6863 17.14 82.6463 17.14H81.3863ZM81.3863 14.984V14.708H82.7143C82.7223 14.7187 82.7303 14.736 82.7383 14.76C82.7463 14.784 82.7503 14.8093 82.7503 14.836C82.7503 14.8787 82.7396 14.9147 82.7183 14.944C82.6969 14.9707 82.6663 14.984 82.6263 14.984H81.3863Z" fill="white"/>
<path d="M23.54 5.705V7.63H26.125V8.851H23.54V10.886H26.455V12.14H22V4.451H26.455V5.705H23.54ZM27.4585 9.093C27.4585 8.46233 27.5868 7.91233 27.8435 7.443C28.1002 6.96633 28.4558 6.59967 28.9105 6.343C29.3652 6.079 29.8858 5.947 30.4725 5.947C31.2278 5.947 31.8512 6.13767 32.3425 6.519C32.8412 6.893 33.1748 7.421 33.3435 8.103H31.6825C31.5945 7.839 31.4442 7.63367 31.2315 7.487C31.0262 7.333 30.7695 7.256 30.4615 7.256C30.0215 7.256 29.6732 7.41733 29.4165 7.74C29.1598 8.05533 29.0315 8.50633 29.0315 9.093C29.0315 9.6723 29.1598 10.1233 29.4165 10.446C29.6732 10.7613 30.0215 10.919 30.4615 10.919C31.0848 10.919 31.4918 10.6403 31.6825 10.083H33.3435C33.1748 10.743 32.8412 11.2673 32.3425 11.656C31.8438 12.0447 31.2205 12.239 30.4725 12.239C29.8858 12.239 29.3652 12.1107 28.9105 11.854C28.4558 11.59 28.1002 11.2233 27.8435 10.754C27.5868 10.2773 27.4585 9.7237 27.4585 9.093ZM37.1777 12.239C36.591 12.239 36.063 12.1107 35.5937 11.854C35.1243 11.59 34.754 11.2197 34.4827 10.743C34.2187 10.2663 34.0867 9.7163 34.0867 9.093C34.0867 8.46967 34.2223 7.91967 34.4937 7.443C34.7723 6.96633 35.15 6.59967 35.6267 6.343C36.1033 6.079 36.635 5.947 37.2217 5.947C37.8083 5.947 38.34 6.079 38.8167 6.343C39.2933 6.59967 39.6673 6.96633 39.9387 7.443C40.2173 7.91967 40.3567 8.46967 40.3567 9.093C40.3567 9.7163 40.2137 10.2663 39.9277 10.743C39.649 11.2197 39.2677 11.59 38.7837 11.854C38.307 12.1107 37.7717 12.239 37.1777 12.239ZM37.1777 10.897C37.4563 10.897 37.7167 10.831 37.9587 10.699C38.208 10.5597 38.406 10.3543 38.5527 10.083C38.6993 9.8117 38.7727 9.4817 38.7727 9.093C38.7727 8.51367 38.6187 8.07 38.3107 7.762C38.01 7.44667 37.6397 7.289 37.1997 7.289C36.7597 7.289 36.3893 7.44667 36.0887 7.762C35.7953 8.07 35.6487 8.51367 35.6487 9.093C35.6487 9.6723 35.7917 10.1197 36.0777 10.435C36.371 10.743 36.7377 10.897 37.1777 10.897ZM43.0263 5.705V7.63H45.6113V8.851H43.0263V10.886H45.9413V12.14H41.4863V4.451H45.9413V5.705H43.0263ZM49.6728 12.239C49.1742 12.239 48.7268 12.151 48.3308 11.975C47.9348 11.7917 47.6195 11.546 47.3848 11.238C47.1575 10.93 47.0328 10.589 47.0108 10.215H48.5618C48.5912 10.4497 48.7048 10.644 48.9028 10.798C49.1082 10.952 49.3612 11.029 49.6618 11.029C49.9552 11.029 50.1825 10.9703 50.3438 10.853C50.5125 10.7357 50.5968 10.5853 50.5968 10.402C50.5968 10.204 50.4942 10.0573 50.2888 9.962C50.0908 9.8593 49.7718 9.7493 49.3318 9.632C48.8772 9.522 48.5032 9.4083 48.2098 9.291C47.9238 9.1737 47.6745 8.994 47.4618 8.752C47.2565 8.51 47.1538 8.18367 47.1538 7.773C47.1538 7.43567 47.2492 7.12767 47.4398 6.849C47.6378 6.57033 47.9165 6.35033 48.2758 6.189C48.6425 6.02767 49.0715 5.947 49.5628 5.947C50.2888 5.947 50.8682 6.13033 51.3008 6.497C51.7335 6.85633 51.9718 7.344 52.0158 7.96H50.5418C50.5198 7.718 50.4172 7.52733 50.2338 7.388C50.0578 7.24133 49.8195 7.168 49.5188 7.168C49.2402 7.168 49.0238 7.21933 48.8698 7.322C48.7232 7.42467 48.6498 7.56767 48.6498 7.751C48.6498 7.95633 48.7525 8.114 48.9578 8.224C49.1632 8.32667 49.4822 8.433 49.9148 8.543C50.3548 8.653 50.7178 8.76667 51.0038 8.884C51.2898 9.00133 51.5355 9.1847 51.7408 9.434C51.9535 9.676 52.0635 9.9987 52.0708 10.402C52.0708 10.754 51.9718 11.0693 51.7738 11.348C51.5832 11.6267 51.3045 11.8467 50.9378 12.008C50.5785 12.162 50.1568 12.239 49.6728 12.239ZM52.939 9.093C52.939 8.46233 53.0673 7.91233 53.324 7.443C53.5806 6.96633 53.9363 6.59967 54.391 6.343C54.8456 6.079 55.3663 5.947 55.953 5.947C56.7083 5.947 57.3316 6.13767 57.823 6.519C58.3216 6.893 58.6553 7.421 58.824 8.103H57.163C57.075 7.839 56.9246 7.63367 56.712 7.487C56.5066 7.333 56.25 7.256 55.942 7.256C55.502 7.256 55.1536 7.41733 54.897 7.74C54.6403 8.05533 54.512 8.50633 54.512 9.093C54.512 9.6723 54.6403 10.1233 54.897 10.446C55.1536 10.7613 55.502 10.919 55.942 10.919C56.5653 10.919 56.9723 10.6403 57.163 10.083H58.824C58.6553 10.743 58.3216 11.2673 57.823 11.656C57.3243 12.0447 56.701 12.239 55.953 12.239C55.3663 12.239 54.8456 12.1107 54.391 11.854C53.9363 11.59 53.5806 11.2233 53.324 10.754C53.0673 10.2773 52.939 9.7237 52.939 9.093ZM65.7051 6.046V12.14H64.1541V11.37C63.9561 11.634 63.6958 11.843 63.3731 11.997C63.0578 12.1437 62.7131 12.217 62.3391 12.217C61.8625 12.217 61.4408 12.118 61.0741 11.92C60.7075 11.7147 60.4178 11.4177 60.2051 11.029C59.9998 10.633 59.8971 10.1637 59.8971 9.621V6.046H61.4371V9.401C61.4371 9.885 61.5581 10.259 61.8001 10.523C62.0421 10.7797 62.3721 10.908 62.7901 10.908C63.2155 10.908 63.5491 10.7797 63.7911 10.523C64.0331 10.259 64.1541 9.885 64.1541 9.401V6.046H65.7051ZM72.8896 8.961C72.8896 9.181 72.8749 9.379 72.8456 9.555H68.3906C68.4273 9.995 68.5813 10.3397 68.8526 10.589C69.1239 10.8383 69.4576 10.963 69.8536 10.963C70.4256 10.963 70.8326 10.7173 71.0746 10.226H72.7356C72.5596 10.8127 72.2223 11.2967 71.7236 11.678C71.2249 12.052 70.6126 12.239 69.8866 12.239C69.2999 12.239 68.7719 12.1107 68.3026 11.854C67.8406 11.59 67.4776 11.2197 67.2136 10.743C66.9569 10.2663 66.8286 9.7163 66.8286 9.093C66.8286 8.46233 66.9569 7.90867 67.2136 7.432C67.4703 6.95533 67.8296 6.58867 68.2916 6.332C68.7536 6.07533 69.2853 5.947 69.8866 5.947C70.4659 5.947 70.9829 6.07167 71.4376 6.321C71.8996 6.57033 72.2553 6.926 72.5046 7.388C72.7613 7.84267 72.8896 8.367 72.8896 8.961ZM71.2946 8.521C71.2873 8.125 71.1443 7.80967 70.8656 7.575C70.5869 7.333 70.2459 7.212 69.8426 7.212C69.4613 7.212 69.1386 7.32933 68.8746 7.564C68.6179 7.79133 68.4603 8.11033 68.4016 8.521H71.2946ZM75.5537 4V12.14H74.0137V4H75.5537ZM76.6792 9.071C76.6792 8.455 76.8002 7.90867 77.0422 7.432C77.2915 6.95533 77.6252 6.58867 78.0432 6.332C78.4685 6.07533 78.9415 5.947 79.4622 5.947C79.9169 5.947 80.3129 6.03867 80.6502 6.222C80.9949 6.40533 81.2699 6.63633 81.4752 6.915V6.046H83.0262V12.14H81.4752V11.249C81.2772 11.535 81.0022 11.7733 80.6502 11.964C80.3055 12.1473 79.9059 12.239 79.4512 12.239C78.9379 12.239 78.4685 12.107 78.0432 11.843C77.6252 11.579 77.2915 11.2087 77.0422 10.732C76.8002 10.248 76.6792 9.6943 76.6792 9.071ZM81.4752 9.093C81.4752 8.719 81.4019 8.4 81.2552 8.136C81.1085 7.86467 80.9105 7.65933 80.6612 7.52C80.4119 7.37333 80.1442 7.3 79.8582 7.3C79.5722 7.3 79.3082 7.36967 79.0662 7.509C78.8242 7.64833 78.6262 7.85367 78.4722 8.125C78.3255 8.389 78.2522 8.70433 78.2522 9.071C78.2522 9.4377 78.3255 9.7603 78.4722 10.039C78.6262 10.3103 78.8242 10.5193 79.0662 10.666C79.3155 10.8127 79.5795 10.886 79.8582 10.886C80.1442 10.886 80.4119 10.8163 80.6612 10.677C80.9105 10.5303 81.1085 10.325 81.2552 10.061C81.4019 9.7897 81.4752 9.467 81.4752 9.093Z" fill="white"/>
</svg>
